<?xml version="1.0" encoding="UTF-8"?>
<svg xmlns="http://www.w3.org/2000/svg" viewBox="0 0 75 110">
  <defs>
    <style>
      .cls-1, .cls-2, .cls-3, .cls-4, .cls-5, .cls-6, .cls-7, .cls-8, .cls-9 {
        stroke-linecap: round;
        stroke-linejoin: round;
      }

      .cls-1, .cls-2, .cls-3, .cls-4, .cls-5, .cls-6, .cls-7, .cls-8, .cls-9, .cls-10 {
        stroke: #0d0d0d;
      }

      .cls-1, .cls-11 {
        fill: #50e576;
      }

      .cls-2 {
        fill: #404040;
      }

      .cls-3 {
        fill: gray;
      }

      .cls-4 {
        fill: #bfbfbf;
      }

      .cls-5 {
        fill: #e5e5e5;
      }

      .cls-6, .cls-12 {
        fill: #fff;
      }

      .cls-7, .cls-8, .cls-10 {
        fill: none;
      }

      .cls-8 {
        stroke-width: .75px;
      }

      .cls-9 {
        fill: #f2f2f2;
      }

      .cls-10 {
        stroke-miterlimit: 10;
      }

      .cls-11, .cls-12 {
        stroke-width: 0px;
      }
    </style>
  </defs>
  <g id="Base">
    <rect class="cls-11" x="0" width="75" height="110" rx="5.02" ry="5.02"/>
    <rect class="cls-12" x="5" y="5" width="65" height="100" rx="4.46" ry="4.46"/>
    <path class="cls-11" d="m15.49,10.14c-1.35-.56-2.42-2.04-2.48-2.12h0s0,0,0,0c0,0,0,0,0,0h0c-.06.1-1.13,1.57-2.48,2.14,0,0-2.79,1.11-2.49,3.49,0,1.04,1.12,1.88,2.49,1.88.98,0,1.82-.42,2.23-1.04-.64,1.94-2.24,3.54-2.24,3.54h4.99s-1.62-1.62-2.25-3.57c.4.64,1.26,1.07,2.25,1.07,1.38,0,2.49-.84,2.49-1.88,0-.02,0-.04,0-.06.24-2.33-2.5-3.43-2.5-3.43Z"/>
    <path class="cls-11" d="m64.49,99.86c-1.35.56-2.42,2.04-2.48,2.12h0s0,0,0,0c0,0,0,0,0,0h0c-.06-.1-1.13-1.57-2.48-2.14,0,0-2.79-1.11-2.49-3.49,0-1.04,1.12-1.88,2.49-1.88.98,0,1.82.42,2.23,1.04-.64-1.94-2.24-3.54-2.24-3.54h4.99s-1.62,1.62-2.25,3.57c.4-.64,1.26-1.07,2.25-1.07,1.38,0,2.49.84,2.49,1.88,0,.02,0,.04,0,.06.24,2.33-2.5,3.43-2.5,3.43Z"/>
  </g>
  <g id="People">
    <g>
      <g>
        <path class="cls-1" d="m37.5,80.63h21.46c4.45-14.45-6.73-18.18-6.73-18.18-7.71-.92-9.72-3.19-9.72-3.19h-5"/>
        <path class="cls-1" d="m37.5,80.63h-21.46c-4.45-14.45,6.73-18.18,6.73-18.18,7.71-.92,9.72-3.19,9.72-3.19h5"/>
      </g>
      <path class="cls-3" d="m47.12,43.05s3.1-3.1,2.94,1.62c0,0-.51,8.13-3.06,3.58l.12-5.2Z"/>
      <path class="cls-3" d="m27.88,43.05s-3.1-3.1-2.94,1.62c0,0,.51,8.13,3.06,3.58l-.12-5.2Z"/>
      <path class="cls-3" d="m42.63,55h-10.25s.75,6.57-1.04,8.07c0,0,1.31,2.63,6.17,2.56,4.85.08,6.17-2.56,6.17-2.56-1.79-1.51-1.04-8.07-1.04-8.07Z"/>
      <path class="cls-3" d="m37.5,34.26c-13.87-1.23-9.16,16.51-9.16,16.51,2.38,6.17,9.16,6.86,9.16,6.86,0,0,6.78-.69,9.16-6.86,0,0,4.71-17.74-9.16-16.51Z"/>
      <path class="cls-4" d="m29.31,60.32s2.43.63,7.49,2.51c0,0,7.49-2.41,9.34-2.51,0,0,1.5,2.49-.98,4.3,0,0-3.04,2.22-8.58,1.9,0,0-6.08-.52-7.28-3.08v-3.12Z"/>
      <polygon class="cls-6" points="45.16 64.62 41.57 70.95 46.59 72.3 49.7 65.63 45.16 64.62"/>
      <polygon class="cls-6" points="30 64.62 33.89 72.3 28.22 73.55 26.29 66.27 30 64.62"/>
      <path class="cls-5" d="m45.02,58.63s-3.34,3.38-2.33,7.8c0,0,5.58,2,6.61,4.2,0,0,9.61-1.41,10.73-4.2,0,0-4.09-8.36-15-7.8Z"/>
      <path class="cls-5" d="m29.98,58.63s3.34,3.38,2.33,7.8c0,0-5.58,2-6.61,4.2,0,0-9.61-1.41-10.73-4.2,0,0,4.09-8.36,15-7.8Z"/>
      <path class="cls-5" d="m37.5,70.32c-9.52-2.06-13.64,1.98-13.64,1.98-.36,4.16,3.06,8.33,3.06,8.33h10.56l.02-10.31Z"/>
      <path class="cls-5" d="m37.5,70.32c9.52-2.06,13.64,1.98,13.64,1.98.36,4.16-3.06,8.33-3.06,8.33h-10.56l-.02-10.31Z"/>
      <path class="cls-2" d="m47.33,33.31s.66-4.34-9.83-3.91c-10.49-.43-9.83,3.91-9.83,3.91-.99,4.34,0,9.33,0,9.33,2.42-7.09,9.83-3.43,9.83-3.43h0c3.73-1.79,8.12-.97,9.83,3.43,0,0,.99-4.98,0-9.33Z"/>
      <circle class="cls-10" cx="32.5" cy="45.63" r="3.75"/>
      <circle class="cls-10" cx="42.5" cy="45.63" r="3.75"/>
      <line class="cls-7" x1="28.91" y1="44.53" x2="27.67" y2="42.63"/>
      <line class="cls-7" x1="47.33" y1="42.63" x2="46.09" y2="44.53"/>
      <path class="cls-7" d="m36.25,45.63s1.3-1.01,2.5,0"/>
    </g>
    <path class="cls-9" d="m37.15,54.41c-2.83-.24-2.87-3.05-2.87-3.05,0,0,3.75,1.22,6.44,0,0,0,.34,3.37-3.57,3.05Z"/>
    <path class="cls-7" d="m35.14,41.21s-2.76-2.61-5.27,0"/>
    <path class="cls-7" d="m39.86,41.21s2.76-2.61,5.27,0"/>
    <path class="cls-8" d="m31.5,45.63s1.01-.85,2,0"/>
    <path class="cls-8" d="m41.5,45.63s1.02-1.06,2,0"/>
  </g>
</svg>