<?xml version="1.0" encoding="UTF-8"?>
<svg xmlns="http://www.w3.org/2000/svg" xmlns:xlink="http://www.w3.org/1999/xlink" viewBox="0 0 75 110">
  <defs>
    <style>
      .cls-1 {
        fill: #404040;
      }

      .cls-1, .cls-2, .cls-3, .cls-4, .cls-5, .cls-6, .cls-7, .cls-8 {
        stroke-linecap: round;
        stroke-linejoin: round;
      }

      .cls-1, .cls-2, .cls-3, .cls-4, .cls-5, .cls-7, .cls-8 {
        stroke: #0d0d0d;
      }

      .cls-2 {
        fill: gray;
      }

      .cls-3, .cls-9 {
        fill: #8f39e5;
      }

      .cls-4, .cls-10 {
        fill: #fff;
      }

      .cls-5, .cls-6, .cls-7 {
        fill: none;
      }

      .cls-6 {
        stroke: #8f39e5;
      }

      .cls-6, .cls-7 {
        stroke-width: .75px;
      }

      .cls-8 {
        fill: url(#linear-gradient);
      }

      .cls-11 {
        fill: #0d0d0d;
      }

      .cls-11, .cls-9, .cls-10 {
        stroke-width: 0px;
      }
    </style>
    <linearGradient id="linear-gradient" x1="37.9" y1="29.91" x2="26.17" y2="69.58" gradientUnits="userSpaceOnUse">
      <stop offset=".4" stop-color="#404040"/>
      <stop offset=".49" stop-color="#413f44"/>
      <stop offset=".58" stop-color="#473f50"/>
      <stop offset=".68" stop-color="#513e65"/>
      <stop offset=".78" stop-color="#5f3d82"/>
      <stop offset=".87" stop-color="#713ba7"/>
      <stop offset=".97" stop-color="#8739d5"/>
      <stop offset="1" stop-color="#8f39e5"/>
    </linearGradient>
  </defs>
  <g id="Base">
    <rect class="cls-9" width="75" height="110" rx="5.02" ry="5.02"/>
    <rect class="cls-10" x="5" y="5" width="65" height="100" rx="4.46" ry="4.46"/>
    <path class="cls-9" d="m18,12.99c0-1.01-.75-1.83-1.71-1.97v-.03c-.07,0-.16,0-.25,0-.01,0-.03,0-.04,0-.31,0-.6.08-.86.2-.13.04-.26.09-.4.13.18-.52.28-.99.26-1.33,0-1.1-.9-2-2-2s-2,.9-2,2c-.02.31.07.74.22,1.22-.48-.16-.91-.25-1.22-.23-1.1,0-2,.9-2,2s.9,2,2,2c.58.05,1.56-.31,2.5-.73-.73,1.95-2.01,3.74-2.01,3.74h5.01s-1.32-1.85-2.05-3.84c0-.01.01-.03.02-.04.55.26,1.14.5,1.66.66.26.13.55.2.86.2.01,0,.03,0,.04,0,.09,0,.17.01.24,0v-.03c.97-.14,1.71-.96,1.71-1.97Z"/>
    <path class="cls-9" d="m67,97.01c0,1.01-.75,1.83-1.71,1.97v.03c-.07,0-.16,0-.25,0-.01,0-.03,0-.04,0-.31,0-.6-.08-.86-.2-.13-.04-.26-.09-.4-.13.18.52.28.99.26,1.33,0,1.1-.9,2-2,2s-2-.9-2-2c-.02-.31.07-.74.22-1.22-.48.16-.91.25-1.22.23-1.1,0-2-.9-2-2s.9-2,2-2c.58-.05,1.56.31,2.5.73-.73-1.95-2.01-3.74-2.01-3.74h5.01s-1.32,1.85-2.05,3.84c0,.01.01.03.02.04.55-.26,1.14-.5,1.66-.66.26-.13.55-.2.86-.2.01,0,.03,0,.04,0,.09,0,.17-.01.24,0v.03c.97.14,1.71.96,1.71,1.97Z"/>
  </g>
  <g id="People">
    <g>
      <path class="cls-8" d="m42.45,42.69s4.69-5.75-.8-9.62c0,0-5.1-5.76-11.11,0,0,0-5.14,6.19-5.46,10.32,0,0,.81,3.83-.08,5.94,0,0,1.62-.8.08,4.32,0,0-3.01,5.81-2.05,10,0,0-1.14,3.46.75,5.48,0,0,11.51,6.31,12.1-8.13,0,0,4.18-16.59,6.57-18.28Z"/>
      <path class="cls-3" d="m35.09,42.49s-1.71-2.25,2.36-2.25c0,0,3.98-.56,2.45,2.25h-4.82Z"/>
      <path class="cls-2" d="m43.93,64.39s-5.62-2.86-12.62,0l1.85,5.07h9.68l1.1-5.07Z"/>
      <path class="cls-4" d="m58.06,76.77c-1.94-8.63-8.54-7.29-8.54-7.29-4.38.93-8.17-.34-8.17-.34-2.03-2.28-.35-7.05-.35-7.05l-3.5,2.29-3.5-2.29s1.68,4.77-.35,7.05c0,0-3.79,1.27-8.17.34,0,0-6.6-1.34-8.54,7.29,0,0,.09,1.78-.56,2.72h42.23c-.65-.94-.56-2.72-.56-2.72Z"/>
      <path class="cls-3" d="m32.37,73.12s-.03,2.9,5.13,2.89c0,0,5.62.91,6.13-2.89,0,0,2.64,3.38,1.42,6.37h-14.55s-.98-5.31,1.86-6.37Z"/>
      <path class="cls-4" d="m45.43,53.38s2.65-4.43,2.65,0c0,0-1.37,6.81-3.58,3.09l.93-3.09Z"/>
      <path class="cls-4" d="m29.57,53.38s-2.65-4.43-2.65,0c0,0,1.37,6.81,3.58,3.09l-.93-3.09Z"/>
      <path class="cls-4" d="m45.98,51.87c.02-.24.02-.38.02-.38h0c0-4.69-3.81-8.5-8.5-8.5s-8.5,3.81-8.5,8.5h0s0,.14.02.38c.03.57.11,1.13.24,1.67.57,2.88,2.39,8.1,8.24,10.85h0c5.86-2.76,7.67-7.97,8.24-10.85.13-.54.21-1.1.24-1.67Z"/>
      <path class="cls-2" d="m49.48,69.47s-2.22,4.01,0,10.01h-7.98s3.95-4.64,1.13-10.02c0,0,4.06.61,6.85,0Z"/>
      <path class="cls-2" d="m26.52,69.47s2.22,4.01,0,10.01h7.98s-3.95-4.64-1.13-10.02c0,0-4.06.61-6.85,0Z"/>
      <path class="cls-2" d="m45.86,71.49s1.75-3.89.66-5.49c0,0-.79-1.61-2.58-1.61,0,0-2.27-.16-1.1,5.07,0,0,1.67-4.6,3.02,2.03Z"/>
      <path class="cls-2" d="m30.14,71.49s-1.75-3.89-.66-5.49c0,0,.79-1.61,2.58-1.61,0,0,2.27-.16,1.1,5.07,0,0-1.67-4.6-3.02,2.03Z"/>
      <path class="cls-1" d="m37.5,41.78c-10.75,2.03-8.51,9.72-8.51,9.72,2.51-2.56,8.63,0,8.63,0,0,0,5.87-2.56,8.39,0,0,0,2.24-7.69-8.51-9.72Z"/>
      <path class="cls-5" d="m32.02,48.34s-.03-3.81,5.7-3.68c0,0,5.31-.32,5.25,3.68"/>
      <line class="cls-5" x1="46.87" y1="56.26" x2="48.08" y2="57.58"/>
      <line class="cls-5" x1="46" y1="57.23" x2="46.87" y2="58.78"/>
    </g>
    <ellipse class="cls-11" cx="41" cy="55.49" rx="1" ry="1.75"/>
    <ellipse class="cls-11" cx="34" cy="55.49" rx="1" ry="1.75"/>
    <line class="cls-7" x1="41" y1="55.76" x2="42.73" y2="55.22"/>
    <line class="cls-7" x1="34" y1="55.76" x2="32.27" y2="55.22"/>
    <line class="cls-7" x1="32.17" y1="52.62" x2="36.02" y2="53.37"/>
    <line class="cls-7" x1="42.83" y1="52.62" x2="39.17" y2="53.37"/>
    <line class="cls-6" x1="36.52" y1="60.87" x2="36.02" y2="62.09"/>
    <path class="cls-7" d="m35.7,60.62s2.85.4,3.6-.37"/>
  </g>
</svg>