<?xml version="1.0" encoding="UTF-8"?>
<svg xmlns="http://www.w3.org/2000/svg" viewBox="0 0 75 110">
  <defs>
    <style>
      .cls-1 {
        fill: #404040;
      }

      .cls-1, .cls-2, .cls-3, .cls-4, .cls-5, .cls-6, .cls-7, .cls-8, .cls-9 {
        stroke: #0d0d0d;
        stroke-linecap: round;
        stroke-linejoin: round;
      }

      .cls-2 {
        fill: gray;
      }

      .cls-3, .cls-10 {
        fill: #b6d92b;
      }

      .cls-4 {
        fill: #bfbfbf;
      }

      .cls-5 {
        fill: #e5e5e5;
      }

      .cls-6, .cls-11 {
        fill: #fff;
      }

      .cls-7, .cls-8 {
        fill: none;
      }

      .cls-8, .cls-9 {
        stroke-width: .75px;
      }

      .cls-9 {
        fill: #f2f2f2;
      }

      .cls-12 {
        fill: #0d0d0d;
      }

      .cls-12, .cls-10, .cls-11 {
        stroke-width: 0px;
      }
    </style>
  </defs>
  <g id="Base">
    <rect class="cls-10" width="75" height="110" rx="5.02" ry="5.02"/>
    <rect class="cls-11" x="5" y="5" width="65" height="100" rx="4.46" ry="4.46"/>
    <path class="cls-10" d="m18,12.99c0-1.01-.75-1.83-1.71-1.97v-.03c-.07,0-.16,0-.25,0-.01,0-.03,0-.04,0-.31,0-.6.08-.86.2-.13.04-.26.09-.4.13.18-.52.28-.99.26-1.33,0-1.1-.9-2-2-2s-2,.9-2,2c-.02.31.07.74.22,1.22-.48-.16-.91-.25-1.22-.23-1.1,0-2,.9-2,2s.9,2,2,2c.58.05,1.56-.31,2.5-.73-.73,1.95-2.01,3.74-2.01,3.74h5.01s-1.32-1.85-2.05-3.84c0-.01.01-.03.02-.04.55.26,1.14.5,1.66.66.26.13.55.2.86.2.01,0,.03,0,.04,0,.09,0,.17.01.24,0v-.03c.97-.14,1.71-.96,1.71-1.97Z"/>
    <path class="cls-10" d="m67,97.01c0,1.01-.75,1.83-1.71,1.97v.03c-.07,0-.16,0-.25,0-.01,0-.03,0-.04,0-.31,0-.6-.08-.86-.2-.13-.04-.26-.09-.4-.13.18.52.28.99.26,1.33,0,1.1-.9,2-2,2s-2-.9-2-2c-.02-.31.07-.74.22-1.22-.48.16-.91.25-1.22.23-1.1,0-2-.9-2-2s.9-2,2-2c.58-.05,1.56.31,2.5.73-.73-1.95-2.01-3.74-2.01-3.74h5.01s-1.32,1.85-2.05,3.84c0,.01.01.03.02.04.55-.26,1.14-.5,1.66-.66.26-.13.55-.2.86-.2.01,0,.03,0,.04,0,.09,0,.17-.01.24,0v.03c.97.14,1.71.96,1.71,1.97Z"/>
  </g>
  <g id="People">
    <g>
      <path class="cls-2" d="m46.05,48.57s3.32-3.41,3.11,1.66c0,0-2.23,8.64-4.15,3.87,0,0-.1-3.14,1.05-5.53Z"/>
      <path class="cls-3" d="m54.03,66.47c-3.15-3.49-10.84-.91-10.84-.91l-5.69.1-5.69-.1s-7.69-2.59-10.84.91c0,0-1.95,11.05-3.69,16.07h40.44c-1.74-5.02-3.69-16.07-3.69-16.07Z"/>
      <path class="cls-2" d="m28.95,48.57s-3.32-3.41-3.11,1.66c0,0,2.23,8.64,4.15,3.87,0,0,.1-3.14-1.05-5.53Z"/>
      <path class="cls-2" d="m42.18,58.71h-9.36s1.48,3.72-1.01,7.09c0,0,1.85,2.17,5.69,2.24,3.84-.07,5.69-2.24,5.69-2.24-2.49-3.36-1.01-7.09-1.01-7.09Z"/>
      <path class="cls-2" d="m37.5,40.26s-10.55-.27-8.64,11.32c0,0-.16,6.27,8.64,9.96,8.8-3.7,8.64-9.96,8.64-9.96,1.91-11.59-8.64-11.32-8.64-11.32Z"/>
      <path class="cls-1" d="m28.25,43.04s-3.59-.63-1.67-5.78c0,0-2.21-4.2,3.09-5.96,0,0-.19-5.28,7.34-2.85,0,0,3.78-2.71,6.11.81,0,0,5.17.54,3.55,3.79,0,0,3.66,2.71,1.74,5.01,0,0,1.31,4.88-4,4.47,0,0-2.07,2.62-5.43.5,0,0-3.88,2.67-6.08,0,0,0-3.75,2.39-4.66,0Z"/>
      <path class="cls-3" d="m33.8,39.27s-2.36-2.69,3.26-3.26c0,0,6.21-1.17,4.07,2.69l-7.33.57Z"/>
      <path class="cls-1" d="m46.55,47.57c1.01-2.98-.18-4.95-.18-4.95-.71-3.03-3.31-2.94-3.31-2.94-1.15-3.19-5.56-1.63-5.56-1.63-3.06-.98-5.41,1.52-5.41,1.52-3.26.65-3.46,3.58-3.46,3.58-1.72,2.61-.18,4.42-.18,4.42,0,0,2.01.77,4.95-1.12,0,0,3.01-.15,4.06-1.02,0,0,2.57,1.5,4.74,1.02,0,0,3.96,2.31,4.36,1.12Z"/>
      <circle class="cls-12" cx="46.81" cy="54.13" r=".5"/>
      <circle class="cls-12" cx="28.24" cy="54.13" r=".5"/>
      <path class="cls-5" d="m43,65.8s2.25.96.52,16.74h-12.03c-1.73-15.78.52-16.74.52-16.74,0,0,1.79,2.05,5.5,2.24,0,0,4.03-.12,5.5-2.24Z"/>
      <path class="cls-4" d="m44.18,69.07c6.67,3.77,10.32-.45,10.32-.45l-.47-2.51s-2.56-4.24-11.53-1.83l1.68,4.79Z"/>
      <path class="cls-4" d="m30.82,69.07c-6.67,3.77-10.32-.45-10.32-.45l.47-2.51s2.56-4.24,11.53-1.83l-1.68,4.79Z"/>
      <path class="cls-6" d="m42,62.6s3.4-.67,4.54-3.06c0,0,1.95,11.44-2.2,17.27,0,0,.72-8.68-1.17-10.91,0,0-1.11-1.53-1.17-3.3Z"/>
      <path class="cls-6" d="m33,62.6s-3.4-.67-4.54-3.06c0,0-1.95,11.44,2.2,17.27,0,0-.72-8.68,1.17-10.91,0,0,1.11-1.53,1.17-3.3Z"/>
      <path class="cls-7" d="m26.7,72.69s-1.57,6.34,0,9.85"/>
      <path class="cls-7" d="m48.3,72.69s1.57,6.34,0,9.85"/>
    </g>
    <ellipse class="cls-12" cx="33.5" cy="52.54" rx="1" ry="2"/>
    <line class="cls-8" x1="42.34" y1="52.87" x2="44.03" y2="52.6"/>
    <line class="cls-8" x1="33.5" y1="52.54" x2="31.81" y2="53.2"/>
    <path class="cls-8" d="m31.78,49.16s1.72-.41,3.43.76"/>
    <path class="cls-8" d="m43.22,49.16s-1.72-.52-3.43.76"/>
    <path class="cls-9" d="m37.06,58.54c-.78.17-1.92-1.68-1.92-1.68,0,0,2.33.76,4.72-.81,0,0,.29,1.81-2.81,2.5Z"/>
    <path class="cls-8" d="m40.1,52.54s1.29-.65,2.25.33"/>
  </g>
</svg>