<?xml version="1.0" encoding="UTF-8"?>
<svg xmlns="http://www.w3.org/2000/svg" viewBox="0 0 75 110">
  <defs>
    <style>
      .cls-1 {
        fill: #404040;
      }

      .cls-1, .cls-2, .cls-3, .cls-4, .cls-5, .cls-6, .cls-7, .cls-8, .cls-9 {
        stroke: #0d0d0d;
        stroke-linecap: round;
        stroke-linejoin: round;
      }

      .cls-2 {
        fill: gray;
      }

      .cls-3 {
        fill: #bfbfbf;
      }

      .cls-4 {
        fill: #e5e5e5;
      }

      .cls-5, .cls-10 {
        fill: #e55339;
      }

      .cls-6, .cls-11 {
        fill: #fff;
      }

      .cls-7, .cls-8 {
        fill: none;
      }

      .cls-8 {
        stroke-width: .75px;
      }

      .cls-9 {
        fill: #f2f2f2;
      }

      .cls-12 {
        fill: #0d0d0d;
      }

      .cls-12, .cls-11, .cls-10 {
        stroke-width: 0px;
      }
    </style>
  </defs>
  <g id="Base">
    <rect class="cls-10" x="0" width="75" height="110" rx="5.02" ry="5.02"/>
    <rect class="cls-11" x="5" y="5" width="65" height="100" rx="4.46" ry="4.46"/>
    <path class="cls-10" d="m17.99,10.58s0-.05,0-.08c0-1.38-1.12-2.5-2.49-2.5-1.14,0-2.11.77-2.4,1.83-.03.1-.15.1-.18,0-.29-1.05-1.26-1.83-2.4-1.83-1.38,0-2.49,1.12-2.49,2.5-.3,3.17,2.49,4.65,2.49,4.65,1.35.75,2.42,2.72,2.48,2.83v.02s0,0,0,0c0,0,0,0,0,0v-.02c.06-.11,1.13-2.08,2.48-2.83,0,0,2.74-1.46,2.5-4.57Z"/>
    <path class="cls-10" d="m66.99,99.42s0,.05,0,.08c0,1.38-1.12,2.5-2.49,2.5-1.14,0-2.11-.77-2.4-1.83-.03-.1-.15-.1-.18,0-.29,1.05-1.26,1.83-2.4,1.83-1.38,0-2.49-1.12-2.49-2.5-.3-3.17,2.49-4.65,2.49-4.65,1.35-.75,2.42-2.72,2.48-2.83v-.02s0,0,0,0c0,0,0,0,0,0v.02c.06.11,1.13,2.08,2.48,2.83,0,0,2.74,1.46,2.5,4.57Z"/>
  </g>
  <g id="People">
    <g>
      <path class="cls-9" d="m63.24,73.29c2.01-7.71-3.84-9.68-3.84-9.68-4.55-2.95-16.61-1.51-16.61-1.51l-5.28.44-5.28-.44s-12.07-1.44-16.61,1.51c0,0-5.86,1.97-3.84,9.68,0,0-1.58,4.58,0,7.5h51.48c1.58-2.92,0-7.5,0-7.5Z"/>
      <path class="cls-2" d="m22.08,66.76s.7,1.01.27,3.66h30.25s-.66-1.41,1.17-3.72l-8.98-3.11h-14.58l-8.13,3.17Z"/>
      <path class="cls-1" d="m51.86,53.86s-.43,6.02-2.86,7.89l-21.86.02s-2.58-3.03-2.22-7.91h26.93Z"/>
      <path class="cls-5" d="m22.08,80.8s1.56-4.88.27-10.37c0,0,9.7-3.64,15.01.27l.14,10.11h-15.42Z"/>
      <path class="cls-5" d="m52.87,80.8s-1.56-4.88-.27-10.37c0,0-9.7-3.64-15.01.27l-.14,10.11h15.42Z"/>
      <path class="cls-9" d="m43.15,58.74l-5.65-.83-5.65.83s.86,3.32-1.64,4.85c0,0,.59,4.28,7.29,4.2,6.7.08,7.29-4.2,7.29-4.2-2.5-1.54-1.64-4.85-1.64-4.85Z"/>
      <path class="cls-3" d="m43.44,63.59s-1.88,3.92-5.94,4.2c0,0-6-.27-7.29-4.2l-3.07,1.34s2.99,5.65,10.45,5.76c0,0,8.12-1.09,10.07-5.97l-4.22-1.12Z"/>
      <path class="cls-6" d="m43.02,61.77s1.3-1.73,5.21-2.93c0,0-1.3,2.27,2.93,1.46,0,0,2.17-.27,3.69-1.03,0,0-.43,1.89,1.85,2.14,0,0,1.85-.47,4.02,0,0,0,.33,2.53,2.06,2.53,0,0,.98,3.04-4.34,1.95,0,0-6.95,1.84-10.43.23,0,0-5.36-1-4.99-4.37Z"/>
      <path class="cls-4" d="m25.22,44.41s-2.29-1.52-5.22-1.41c0,0,.72,3.1,3.84,5.78,0,0,3.03.52,1.39-4.37Z"/>
      <path class="cls-9" d="m48.78,40.46s-1.81-6.51-11.28-6.3c-9.46-.21-11.28,6.3-11.28,6.3-1.93,6.05,0,12.5,0,12.5,2.61,6.54,11.28,7.84,11.28,7.84,0,0,8.67-1.3,11.28-7.84,0,0,1.93-6.45,0-12.5Z"/>
      <path class="cls-9" d="m49.49,43.41s2.29-1.52,5.22-1.41c0,0-.72,3.1-3.84,5.78,0,0-3.03.52-1.39-4.37Z"/>
      <path class="cls-6" d="m31.98,61.77s-1.3-1.73-5.21-2.93c0,0,1.3,2.27-2.93,1.46,0,0-2.17-.27-3.69-1.03,0,0,.43,1.89-1.85,2.14,0,0-1.85-.47-4.02,0,0,0-.33,2.53-2.06,2.53,0,0-.98,3.04,4.34,1.95,0,0,6.95,1.84,10.43.23,0,0,5.36-1,4.99-4.37Z"/>
      <path class="cls-7" d="m38.81,45.89s-5.11-3.13-9.03-8.65"/>
      <polygon class="cls-6" points="35.17 68.01 35.17 70.55 37.24 72.77 40.28 70.39 40.28 67.8 37.72 65.5 35.17 68.01"/>
      <path class="cls-2" d="m38.81,45.89s3.14-3.75,8.85-1.59l.61,3.18s-3.59,3.77-9.46,1.32v-2.9Z"/>
      <path class="cls-1" d="m25.16,46.54s-2.58,4.38.84,9.25c0,0,2.28.5,4.21,2.62,0,0,1.35,3.07,7.29,4.12,0,0,6.79-.91,8.04-4.63,0,0,.76-2.11,4.09-2.11,0,0,3.29-5.04.36-10.05l-.61-2.64-1.73,1.19s1.41,4.34,0,5.86c0,0-1.29,5.43-4.66,3.37,0,0,.97,3.26-2.72,3.58l-2.35-1.32-2.75,1.32s-4.61-.65-3.17-3.37c0,0-4.54-.11-4.86-3.15,0,0-.43-5.65.54-5.97l-2.32-.54-.2,2.46Z"/>
      <path class="cls-1" d="m37.4,41.26s-3.92-4.06-8.74,1.73c0,0,1.59,2.54,0,4.48,0,0-2.82,1.17-2.28,4.21,0,0-1.02,3.32.76,5.65,0,0-3.03-.76-4.28-4.51,0,0-1.1-2.55,1.37-6.03,0,0,.35-2.99,0-4.81,0,0-4.15-10.83,17.79-9.42,0,0,6.52-2.06,8.47,6.52,0,0-.87,6.84,2.39,10.86,0,0,.65,3.99,0,5.85,0,0-.39.3-1.66,2.11,0,0-.4-4.81-3.55-7.74,0,0-2.71-5.32-1.63-9.34,0,0-5.97-3.04-8.63.43Z"/>
      <path class="cls-5" d="m24.23,41.99s17.89-3.99,26.26-2.91c0,0,2.54-3.04-.85-9.88,0,0-.24,3.88-3.39,6.39,0,0-3.57-3.35-3.25-5.74,0,0-.78,5.32-4.63,6.08,0,0-4.07-.98-4.83-5.43,0,0-.24,6.52-3.76,6.73,0,0-3.95-.44-6.23-4.89,0,0-3.75,4.15.68,9.64Z"/>
    </g>
    <ellipse class="cls-12" cx="33" cy="46.8" rx="1" ry="2"/>
    <path class="cls-8" d="m39,43.54s1.65-.43,6.42-1.99"/>
    <path class="cls-8" d="m35.3,44.74s-1.3.39-5.61-2.1"/>
    <path class="cls-8" d="m34.3,52.82s1.71.77,6.52.36"/>
  </g>
</svg>