<?xml version="1.0" encoding="UTF-8"?>
<svg xmlns="http://www.w3.org/2000/svg" viewBox="0 0 75 110">
  <defs>
    <style>
      .cls-1, .cls-2, .cls-3, .cls-4, .cls-5, .cls-6, .cls-7, .cls-8 {
        stroke: #0d0d0d;
        stroke-linecap: round;
        stroke-linejoin: round;
      }

      .cls-1, .cls-9 {
        fill: #408cff;
      }

      .cls-2 {
        fill: gray;
      }

      .cls-3 {
        fill: #bfbfbf;
      }

      .cls-4 {
        fill: #e5e5e5;
      }

      .cls-5, .cls-10 {
        fill: #fff;
      }

      .cls-6, .cls-7 {
        fill: none;
      }

      .cls-7 {
        stroke-width: .75px;
      }

      .cls-8 {
        fill: #f2f2f2;
      }

      .cls-9, .cls-11, .cls-10 {
        stroke-width: 0px;
      }

      .cls-11 {
        fill: #0d0d0d;
      }
    </style>
  </defs>
  <g id="Base">
    <rect class="cls-9" width="75" height="110" rx="5.02" ry="5.02"/>
    <rect class="cls-10" x="5" y="5" width="65" height="100" rx="4.46" ry="4.46"/>
    <rect class="cls-9" x="9.46" y="9.46" width="7.07" height="7.07" transform="translate(-5.38 13) rotate(-45)"/>
    <rect class="cls-9" x="58.46" y="93.46" width="7.07" height="7.07" transform="translate(-50.43 72.25) rotate(-45)"/>
  </g>
  <g id="People">
    <g>
      <path class="cls-8" d="m29.59,47.85s-.15,3.8.8,6.28c0,0,.47-1.48,1.43-1.87,0,0,.01,2.02,1.75,4.07,0,0,2.37-7.85-3.98-8.48Z"/>
      <path class="cls-8" d="m45.41,47.85s.15,3.8-.8,6.28c0,0-.47-1.48-1.43-1.87,0,0-.01,2.02-1.75,4.07,0,0-2.37-7.85,3.98-8.48Z"/>
      <path class="cls-5" d="m29.24,45.07s-4.26,1.58.76,4.89l-.76-4.89Z"/>
      <polygon class="cls-2" points="29.98 77.85 45.02 77.85 43.58 63.44 31.42 63.44 29.98 77.85"/>
      <path class="cls-5" d="m45.76,45.07s4.26,1.58-.76,4.89l.76-4.89Z"/>
      <path class="cls-1" d="m24.86,61.64s-5.29-.49-6.55,6.25c0,0-1.97,3.44.07,9.97h14.34s-.86-4.92,1.28-13.23c0,0-3.51-4.24-9.14-2.98Z"/>
      <path class="cls-1" d="m50.14,61.64s5.29-.49,6.55,6.25c0,0,1.97,3.44-.07,9.97h-14.34s.86-4.92-1.28-13.23c0,0,3.51-4.24,9.14-2.98Z"/>
      <path class="cls-2" d="m26.33,57.85s11.06-3.64,22.34,0c0,0,.23,3.42-10.92,3.34,0,0-9.74.62-11.42-3.34Z"/>
      <path class="cls-5" d="m33.62,54.24s.96,6.18-2.18,6.93c0,0-.54,3.5,6.27,3.32,0,0,6.57.03,6.94-3.65,0,0-3.62-.73-3.23-6.64l-7.81.03Z"/>
      <path class="cls-5" d="m46,43.85c0-4.69-3.81-8.5-8.5-8.5s-8.5,3.81-8.5,8.5c0,0-.62,8.95,8.5,12.7,9.12-3.75,8.5-12.7,8.5-12.7Z"/>
      <path class="cls-4" d="m43.58,63.44s2.97,7.16,1.45,14.41l-2.95-.06s-.32-7.47-1.07-13.32l2.58-1.02Z"/>
      <path class="cls-4" d="m31.42,63.44s-2.97,7.16-1.45,14.41l2.95-.06s.32-7.47,1.07-13.32l-2.58-1.02Z"/>
      <path class="cls-3" d="m41.21,64.53s-1.53-4.15,3.66-4.93c0,0,2.6-.44,3.8-1.75,0,0,4.13,1.63,1.68,3.69,0,0-4.06.81-9.14,2.98Z"/>
      <path class="cls-3" d="m33.79,64.53s1.53-4.15-3.66-4.93c0,0-2.6-.44-3.8-1.75,0,0-4.13,1.63-1.68,3.69,0,0,4.06.81,9.14,2.98Z"/>
      <path class="cls-6" d="m42.49,65.62s.89,2.67,5.34,5.03c0,0,1.54.73,1.53,3.01"/>
      <path class="cls-6" d="m32.23,65.62s-.73,4.37-5.26,5.93c0,0-1.82,1.56-1.82,2.76"/>
      <path class="cls-8" d="m46.66,36.95h0c-2.05.96-2.81-2.38-2.81-2.38-.78,2.39-3.69-1.5-3.69-1.5-1.27,1.22-3.35-.93-3.35-.93-.5,2.28-2.66,1.14-2.66,1.14-.71,3.18-3.25,1.71-3.25,1.71-1.19,3.99-2.22,2.44-2.22,2.44-3.73,3.83.86,10.48.86,10.48.22-1.6.18-3.35.04-4.97.61-.77,1.68-1.65,3.06-.98,0,0-.56-3.04,4.78,1.87,0,0,6.09-5.6,6.36-2.18,0,0,1.38-.65,2.04,1.47-.12,1.26-.25,2.83-.37,4.78,0,0,4.16-5.85,1.2-10.97Z"/>
    </g>
    <ellipse class="cls-11" cx="33.5" cy="49.07" rx="1" ry="1.5"/>
    <ellipse class="cls-11" cx="41.5" cy="49.07" rx="1" ry="1.5"/>
    <path class="cls-7" d="m35.37,52.74s1.81.76,4.26,0"/>
    <path class="cls-7" d="m31.69,45.94s2.75-.43,3.62.38"/>
    <path class="cls-7" d="m43.31,45.94s-2.75-.43-3.62.38"/>
  </g>
</svg>