<?xml version="1.0" encoding="UTF-8"?>
<svg xmlns="http://www.w3.org/2000/svg" xmlns:xlink="http://www.w3.org/1999/xlink" viewBox="0 0 75 110">
  <defs>
    <style>
      .cls-1 {
        fill: gray;
      }

      .cls-1, .cls-2, .cls-3, .cls-4, .cls-5, .cls-6 {
        stroke: #0d0d0d;
        stroke-linecap: round;
        stroke-linejoin: round;
      }

      .cls-2, .cls-7 {
        fill: #ffa826;
      }

      .cls-3 {
        fill: url(#linear-gradient-2);
      }

      .cls-4 {
        fill: none;
        stroke-width: .75px;
      }

      .cls-5 {
        fill: url(#linear-gradient);
      }

      .cls-6 {
        fill: #f2f2f2;
      }

      .cls-8 {
        fill: #fff;
      }

      .cls-8, .cls-7 {
        stroke-width: 0px;
      }
    </style>
    <linearGradient id="linear-gradient" x1="34.01" y1="30.5" x2="55.54" y2="49.84" gradientUnits="userSpaceOnUse">
      <stop offset=".7" stop-color="gray"/>
      <stop offset="1" stop-color="#ffa826"/>
    </linearGradient>
    <linearGradient id="linear-gradient-2" x1="37.24" y1="36.87" x2="37.52" y2="63.69" gradientUnits="userSpaceOnUse">
      <stop offset=".7" stop-color="gray"/>
      <stop offset="1" stop-color="#ffa826"/>
    </linearGradient>
  </defs>
  <g id="Base">
    <rect class="cls-7" width="75" height="110" rx="5.02" ry="5.02"/>
    <rect class="cls-8" x="5" y="5" width="65" height="100" rx="4.46" ry="4.46"/>
    <path class="cls-7" d="m15.49,10.14c-1.35-.56-2.42-2.04-2.48-2.12h0s0,0,0,0c0,0,0,0,0,0h0c-.06.1-1.13,1.57-2.48,2.14,0,0-2.79,1.11-2.49,3.49,0,1.04,1.12,1.88,2.49,1.88.98,0,1.82-.42,2.23-1.04-.64,1.94-2.24,3.54-2.24,3.54h4.99s-1.62-1.62-2.25-3.57c.4.64,1.26,1.07,2.25,1.07,1.38,0,2.49-.84,2.49-1.88,0-.02,0-.04,0-.06.24-2.33-2.5-3.43-2.5-3.43Z"/>
    <path class="cls-7" d="m64.49,99.86c-1.35.56-2.42,2.04-2.48,2.12h0s0,0,0,0c0,0,0,0,0,0h0c-.06-.1-1.13-1.57-2.48-2.14,0,0-2.79-1.11-2.49-3.49,0-1.04,1.12-1.88,2.49-1.88.98,0,1.82.42,2.23,1.04-.64-1.94-2.24-3.54-2.24-3.54h4.99s-1.62,1.62-2.25,3.57c.4-.64,1.26-1.07,2.25-1.07,1.38,0,2.49.84,2.49,1.88,0,.02,0,.04,0,.06.24,2.33-2.5,3.43-2.5,3.43Z"/>
  </g>
  <g id="People">
    <g>
      <path class="cls-6" d="m55.18,73.97c.26-8.65-7.89-7.31-7.89-7.31-2.78-.55-5.74-3.15-5.74-3.15h-8.1s-2.96,2.6-5.74,3.15c0,0-8.15-1.34-7.89,7.31,0,0-.55,2.61-.19,5.83h35.74c.36-3.22-.19-5.83-.19-5.83Z"/>
      <path class="cls-5" d="m32.12,38.32s-1.72-12.64,13.33-6.37c0,0,2.99,1.22,6.03,5.31,0,0,2.85,6.74,6.06,7.8,0,0-1.58,4.28-7.24,6.7,0,0-5.74-10.37-18.17-13.44Z"/>
      <path class="cls-2" d="m34.27,37.8s-.92-1.85,3.23-1.64c0,0,3.55-.88,3.52,1.73,0,0-3.03,1.44-6.75-.1Z"/>
      <path class="cls-2" d="m47.29,66.66s.11,2.16,1.67,5c0,0,1.86,4.76.71,8.14h-24.19c-.7-3.24,1.57-7.91,1.57-7.91,1.56-2.84.8-5.23.8-5.23,0,0,1.82-.24,5.59-3.15h8.1s2.29,2.48,5.74,3.15Z"/>
      <path class="cls-1" d="m27.68,70.43s3.74-.15,6.07,1.93c0,0,4.47,2.63,8.65-.02,0,0,2.12-1.36,6.09-1.63,0,0-1.22-2.27-1.19-4.05,0,0-4.24-1.22-5.74-3.15h-8.1s-2.03,2.07-5.59,3.15c0,0,.45,2.31-.17,3.77Z"/>
      <path class="cls-6" d="m33.63,60.63s1.09,4.08-.87,6.16c0,0,1.03,1.96,4.81,2.05,0,0,2.87.25,5.08-2.21,0,0-1.87-2.89-1.1-6.06l-7.92.06Z"/>
      <path class="cls-6" d="m37.5,41.3c-4.69,0-8.5,3.81-8.5,8.5-.16,11.17,8.5,12.68,8.5,12.68,0,0,8.66-1.51,8.5-12.68,0-4.69-3.81-8.5-8.5-8.5Z"/>
      <path class="cls-3" d="m48.73,48.21c-.14-7.84-4.46-9.89-7.7-10.31,0,0,0,0,0,0h0c-1.09-.14-2.05-.1-2.69-.04l-2-.03c-.37-.03-.82-.04-1.32-.02h-.74c-.24.03-.44.09-.66.14-3.19.53-7.21,2.7-7.35,10.26,0,0,.23,10.96-1.87,13.91,0,0,3.6,1.19,5.31.15,0,0-.68-8.94.15-16.55h15.28c.83,7.61.15,16.55.15,16.55,1.71,1.04,5.31-.15,5.31-.15-2.1-2.95-1.87-13.91-1.87-13.91Z"/>
      <path class="cls-1" d="m44.5,42.49c2.67,3.15,2.61,7.56,2.61,7.56-7.88.93-19.01-.01-19.01-.01.1-3.5,1.17-5.85,2.56-7.43"/>
    </g>
    <path class="cls-4" d="m35.48,58.7s2.12.87,4.03,0"/>
    <path class="cls-4" d="m31.53,52.64s1.79-.75,3.94.33"/>
    <path class="cls-4" d="m43.47,52.64s-1.97-.75-3.94.33"/>
    <path class="cls-4" d="m40.5,54.91s.98-.5,2,0l.68-.22"/>
    <path class="cls-4" d="m34.5,54.91c-1.02-.5-2,0-2,0l-.62-.31"/>
  </g>
</svg>