<?xml version="1.0" encoding="UTF-8"?>
<svg xmlns="http://www.w3.org/2000/svg" xmlns:xlink="http://www.w3.org/1999/xlink" viewBox="0 0 75 110">
  <defs>
    <style>
      .cls-1 {
        fill: #bfbfbf;
      }

      .cls-1, .cls-2, .cls-3, .cls-4, .cls-5, .cls-6, .cls-7, .cls-8, .cls-9 {
        stroke: #0d0d0d;
        stroke-linecap: round;
        stroke-linejoin: round;
      }

      .cls-2 {
        fill: #e5e5e5;
      }

      .cls-3, .cls-10, .cls-9 {
        fill: #fff;
      }

      .cls-4, .cls-11 {
        fill: #ff7033;
      }

      .cls-5 {
        fill: url(#linear-gradient-2);
      }

      .cls-6 {
        fill: url(#linear-gradient-3);
      }

      .cls-7 {
        fill: none;
      }

      .cls-7, .cls-9 {
        stroke-width: .75px;
      }

      .cls-8 {
        fill: url(#linear-gradient);
      }

      .cls-11, .cls-10 {
        stroke-width: 0px;
      }
    </style>
    <linearGradient id="linear-gradient" x1="45.02" y1="29.06" x2="62.39" y2="66.2" gradientUnits="userSpaceOnUse">
      <stop offset=".5" stop-color="#404040"/>
      <stop offset=".57" stop-color="#44413f"/>
      <stop offset=".64" stop-color="#50443e"/>
      <stop offset=".72" stop-color="#65493d"/>
      <stop offset=".79" stop-color="#82503b"/>
      <stop offset=".87" stop-color="#a75a38"/>
      <stop offset=".94" stop-color="#d56535"/>
      <stop offset="1" stop-color="#ff7033"/>
    </linearGradient>
    <linearGradient id="linear-gradient-2" x1="30.36" y1="29.13" x2="11.9" y2="66.49" xlink:href="#linear-gradient"/>
    <linearGradient id="linear-gradient-3" x1="37.62" y1="42.29" x2="37.73" y2="65.64" gradientUnits="userSpaceOnUse">
      <stop offset=".5" stop-color="#404040"/>
      <stop offset="1" stop-color="#ff7033"/>
    </linearGradient>
  </defs>
  <g id="Base">
    <rect class="cls-11" width="75" height="110" rx="5.02" ry="5.02"/>
    <rect class="cls-10" x="5" y="5" width="65" height="100" rx="4.46" ry="4.46"/>
    <path class="cls-11" d="m17.99,10.58s0-.05,0-.08c0-1.38-1.12-2.5-2.49-2.5-1.14,0-2.11.77-2.4,1.83-.03.1-.15.1-.18,0-.29-1.05-1.26-1.83-2.4-1.83-1.38,0-2.49,1.12-2.49,2.5-.3,3.17,2.49,4.65,2.49,4.65,1.35.75,2.42,2.72,2.48,2.83v.02s0,0,0,0c0,0,0,0,0,0v-.02c.06-.11,1.13-2.08,2.48-2.83,0,0,2.74-1.46,2.5-4.57Z"/>
    <path class="cls-11" d="m66.99,99.42s0,.05,0,.08c0,1.38-1.12,2.5-2.49,2.5-1.14,0-2.11-.77-2.4-1.83-.03-.1-.15-.1-.18,0-.29,1.05-1.26,1.83-2.4,1.83-1.38,0-2.49-1.12-2.49-2.5-.3-3.17,2.49-4.65,2.49-4.65,1.35-.75,2.42-2.72,2.48-2.83v-.02s0,0,0,0c0,0,0,0,0,0v.02c.06.11,1.13,2.08,2.48,2.83,0,0,2.74,1.46,2.5,4.57Z"/>
  </g>
  <g id="People">
    <g>
      <path class="cls-8" d="m41.91,43.66s-3.49-4.18-1.04-8.98c0,0,2.04-5.68,6.94-3.81,0,0,4.6,2,7.2,2,0,0-.09.9-2.09,1.4,0,0,3.79.7,7.29,7.89,0,0,.92,3.79,3.5,5.09,0,0-1.03.97-3.17-1.01,0,0,4.97,8.8,3.17,13.3,0,0-.91,2.88-.61,4.44,0,0-.75-.54-1.67-1.64,0,0,.07,4.2-1.62,5.69,0,0-1.64-4.45-4.09-5.69,0,0,.08,2.87.94,4.23,0,0-5.73-2.23-6.23-6.13,0,0-1.11-8.2-5.45-12.79l-3.05-4Z"/>
      <path class="cls-5" d="m33.09,43.66s3.49-4.18,1.04-8.98c0,0-2.04-5.68-6.94-3.81,0,0-4.6,2-7.2,2,0,0,.09.9,2.09,1.4,0,0-3.79.7-7.29,7.89,0,0-.92,3.79-3.5,5.09,0,0,1.03.97,3.17-1.01,0,0-4.97,8.8-3.17,13.3,0,0,.91,2.88.61,4.44,0,0,.75-.54,1.67-1.64,0,0-.07,4.2,1.62,5.69,0,0,1.64-4.45,4.09-5.69,0,0-.08,2.87-.94,4.23,0,0,5.73-2.23,6.23-6.13,0,0,1.11-8.2,5.45-12.79l3.05-4Z"/>
      <path class="cls-4" d="m41.01,42.66s-.3-2.85,1.96-2.65c0,0,4.45,3.37,4.46,5.1,0,0-.81,1.45-2.7.75l-3.71-3.19Z"/>
      <path class="cls-4" d="m49.19,69.93c-4.44.48-8.06-1.34-8.06-1.34l-3.63-.05-3.23.11s-4.02,1.76-8.46,1.28c0,0-6.04,3.29-4.45,9.57l16.04-.06,16.23.06c1.59-6.28-4.45-9.57-4.45-9.57Z"/>
      <path class="cls-2" d="m41,68.58s2.51,3.81,0,6.31h7.61l-.91-4.92s-3.17-1.86-6.69-1.39Z"/>
      <path class="cls-2" d="m34,68.58s-2.51,3.81,0,6.31h-7.61l.91-4.92s3.17-1.86,6.69-1.39Z"/>
      <path class="cls-1" d="m26.19,74.89s7.03-1.66,11.31,0v4.61h-9.62l-1.69-4.61Z"/>
      <path class="cls-1" d="m48.81,74.89s-7.03-1.66-11.31,0v4.61h9.66l1.64-4.61Z"/>
      <path class="cls-1" d="m46.94,72.16s-.83-3.07,2.02-4.3c0,0,2.75.62,5.09,4.67,0,0,2.64,3.48,1.79,6.94l-5.62.04s-2.04-3.26-3.28-7.34Z"/>
      <path class="cls-1" d="m28.06,72.16s.83-3.07-2.02-4.3c0,0-2.75.62-5.09,4.67,0,0-2.64,3.48-1.79,6.94l5.62.04s2.04-3.26,3.28-7.34Z"/>
      <path class="cls-4" d="m33.99,42.66s.3-2.85-1.96-2.65c0,0-4.45,3.37-4.46,5.1,0,0,.81,1.45,2.7.75l3.71-3.19Z"/>
      <path class="cls-3" d="m34.21,61.39s1.81,5.86.06,7.25c0,0,2.43,3.5,6.86,0,0,0-1.9-3.86-.06-7.13l-6.86-.13Z"/>
      <path class="cls-3" d="m45,52.5c0-4.14-3.36-7.5-7.5-7.5s-7.5,3.36-7.5,7.5c0,0-.85,8.08,7.5,11.99,8.35-3.91,7.5-11.99,7.5-11.99Z"/>
      <path class="cls-6" d="m46.78,54.96s-1.53-4.02-.55-7.28c0,0-1.2-7.96-8.65-4.37-8.77-3.15-8.65,4.37-8.65,4.37.97,3.25-.55,7.28-.55,7.28-2.17,4.13-.32,5.87-.32,5.87,2.33,1.74,1.43,5.17,1.43,5.17,2.21-3.23.49-4.99.49-4.99-1.4-2.71-.17-3.94-.17-3.94,2.32-2.99.59-7.79.59-7.79,3.32-3.25,7.1,0,7.1,0,0,0,3.78-3.25,7.1,0,0,0-1.73,4.8.59,7.79,0,0,1.88.9.48,3.62,0,0-1.74,1.66.46,4.9,0,0-.73-3.34,1.61-5.08,0,0,1.2-1.42-.97-5.54Z"/>
    </g>
    <path class="cls-7" d="m39.25,51.21s1.9-1.6,3.5,0"/>
    <path class="cls-7" d="m35.75,51.21s-1.9-1.6-3.5,0"/>
    <line class="cls-7" x1="42" y1="55.23" x2="42.77" y2="54.77"/>
    <line class="cls-7" x1="33" y1="55.23" x2="32.23" y2="54.77"/>
    <path class="cls-9" d="m34,58.42h7s-.21,3.1-3.5,3.04c0,0-3.43.44-3.5-3.04Z"/>
    <path class="cls-7" d="m42,55.23s-.95-1.05-2,0"/>
    <path class="cls-7" d="m33,55.23s.95-1.05,2,0"/>
  </g>
</svg>