<?xml version="1.0" encoding="UTF-8"?>
<svg xmlns="http://www.w3.org/2000/svg" viewBox="0 0 75 110">
  <defs>
    <style>
      .cls-1, .cls-2, .cls-3, .cls-4, .cls-5, .cls-6, .cls-7, .cls-8 {
        stroke: #0d0d0d;
        stroke-linecap: round;
        stroke-linejoin: round;
      }

      .cls-1, .cls-9 {
        fill: #495af2;
      }

      .cls-2 {
        fill: gray;
      }

      .cls-3 {
        fill: #bfbfbf;
      }

      .cls-4, .cls-10 {
        fill: #e5e5e5;
      }

      .cls-5, .cls-11 {
        fill: #fff;
      }

      .cls-6, .cls-7 {
        fill: none;
      }

      .cls-7 {
        stroke-width: .75px;
      }

      .cls-8 {
        fill: #f2f2f2;
      }

      .cls-9, .cls-12, .cls-11, .cls-10 {
        stroke-width: 0px;
      }

      .cls-12 {
        fill: #0d0d0d;
      }
    </style>
  </defs>
  <g id="Base">
    <rect class="cls-9" width="75" height="110" rx="5.02" ry="5.02"/>
    <rect class="cls-11" x="5" y="5" width="65" height="100" rx="4.46" ry="4.46"/>
    <rect class="cls-9" x="9.46" y="9.46" width="7.07" height="7.07" transform="translate(-5.38 13) rotate(-45)"/>
    <rect class="cls-9" x="58.46" y="93.46" width="7.07" height="7.07" transform="translate(-50.43 72.25) rotate(-45)"/>
  </g>
  <g id="People">
    <g>
      <path class="cls-4" d="m27.76,42.86s-3.57-1.75-.83-4.44c0,0-.63-2.29,1.83-3.55,0,0,2.36-3.38,5.38-2.08,0,0,1.89-1.98,4.57-.3,0,0,4.13-1.51,4.8,1.68,0,0,3.34.07,3.34,2.52,0,0,3.55,2.29.27,5.14l-19.35,1.03Z"/>
      <path class="cls-2" d="m46.84,40.52s1,2.16-.84,4.66h-17s-1.7-1.49-.84-4.66h18.68Z"/>
      <path class="cls-3" d="m48.81,61.94c-6.11-.78-7.64-2.37-7.64-2.37h-7.33s-1.53,1.59-7.64,2.37c0,0-8.42.89-5.97,16.25h34.55c2.45-15.36-5.97-16.25-5.97-16.25Z"/>
      <path class="cls-8" d="m42.51,61.19s5.56,1.86,6.99,7.93c0,0-2.2-.12-4.43,9.07,0,0,0-10.18-2.56-17Z"/>
      <path class="cls-8" d="m33.5,61.19s-5.58.54-6.99,7.93c0,0,2.2-.12,4.43,9.07,0,0,0-10.18,2.56-17Z"/>
      <path class="cls-4" d="m34.5,57.47s-5.64-.98-7.27.7c0,0,2.44,2.27,1.65,5.31,0,0,5.17-1.34,5.61-6.02Z"/>
      <path class="cls-4" d="m40.5,57.47s5.64-.98,7.27.7c0,0-2.44,2.27-1.65,5.31,0,0-5.17-1.34-5.61-6.02Z"/>
      <path class="cls-5" d="m40.27,55.5l-2.77.57-2.77-.57c-.34,4.16-2.36,5.69-2.36,5.69l5.35,2.45,4.91-2.45s-2.02-1.53-2.36-5.69Z"/>
      <path class="cls-5" d="m46,45.19c0-4.69-3.81-8.5-8.5-8.5s-8.5,3.81-8.5,8.5c0,0-1.41,10,8.5,10.9,9.91-.9,8.5-10.9,8.5-10.9Z"/>
      <path class="cls-1" d="m45.19,78.19c1.74-13.38-2.56-17-2.56-17-5.2,2.92-10.26,0-10.26,0,0,0-3.42,4.17-1.05,17h13.87Z"/>
      <line class="cls-6" x1="33.53" y1="66.88" x2="41.47" y2="68.01"/>
      <line class="cls-6" x1="37.43" y1="67.43" x2="36.61" y2="70.8"/>
      <line class="cls-6" x1="35.06" y1="70.51" x2="41.47" y2="71.71"/>
      <polyline class="cls-6" points="38.38 71.16 37.08 73.4 39.79 73.4 38.78 75.14"/>
      <path class="cls-5" d="m46,45.04s2.77-2.55,2.46,1.2c0,0-.21,3.47-2.46,2.88v-4.08Z"/>
      <path class="cls-5" d="m29,45.04s-2.77-2.55-2.46,1.2c0,0,.21,3.47,2.46,2.88v-4.08Z"/>
      <path class="cls-4" d="m30.27,40.52s-3.08,3.71.6,4.66c0,0,1.5-.12,2.23-1.29,0,0,1.28,2.22,3.49.3,0,0,4.38,2.64,4.89-.3,0,0,4.23,2.74,4.31-.6,0,0-1.02-2.67-1.41-3.14l-14.11.37Z"/>
      <path class="cls-10" d="m30.87,39.81s-.35-4.01,7.57-4.83c0,0,6.32.41,5.7,4.24l-13.27.59Z"/>
      <path class="cls-1" d="m39,40.16s-.2,1.33,3.07,1.84c0,0,4.2.98,4.77-1.47,0,0-.51-2.4-3.8-2.25,0,0-3.77-.93-4.04,1.89Z"/>
      <path class="cls-1" d="m36,40.16s.2,1.33-3.07,1.84c0,0-4.2.98-4.77-1.47,0,0,.51-2.4,3.8-2.25,0,0,3.77-.93,4.04,1.89Z"/>
      <path class="cls-2" d="m35.48,41.08s1.3-.92,3.95,0c0,0-1.03-1.01.25-2.33,0,0-2.55.6-4.52-.2,0,0,1.59,1.03.33,2.54Z"/>
    </g>
    <ellipse class="cls-12" cx="33.5" cy="49.19" rx="1" ry="1.5"/>
    <ellipse class="cls-12" cx="41.5" cy="49.19" rx="1" ry="1.5"/>
    <path class="cls-7" d="m31.72,46.87s1.81-.52,3.56-.3"/>
    <path class="cls-7" d="m39.57,46.63s1.5-.74,3.85.36"/>
    <path class="cls-7" d="m35.13,52.34s2.44,1.57,4.73,0"/>
  </g>
</svg>