<?xml version="1.0" encoding="UTF-8"?>
<svg xmlns="http://www.w3.org/2000/svg" viewBox="0 0 75 110">
  <defs>
    <style>
      .cls-1 {
        fill: gray;
      }

      .cls-1, .cls-2, .cls-3, .cls-4, .cls-5, .cls-6, .cls-7, .cls-8 {
        stroke: #0d0d0d;
        stroke-linecap: round;
        stroke-linejoin: round;
      }

      .cls-2 {
        fill: #bfbfbf;
      }

      .cls-3 {
        fill: #e5e5e5;
      }

      .cls-4, .cls-9 {
        fill: #fff;
      }

      .cls-5, .cls-10 {
        fill: #65e545;
      }

      .cls-6, .cls-7 {
        fill: none;
      }

      .cls-7 {
        stroke-width: .75px;
      }

      .cls-8 {
        fill: #f2f2f2;
      }

      .cls-11 {
        fill: #0d0d0d;
      }

      .cls-11, .cls-9, .cls-10 {
        stroke-width: 0px;
      }
    </style>
  </defs>
  <g id="Base">
    <rect class="cls-10" width="75" height="110" rx="5.02" ry="5.02"/>
    <rect class="cls-9" x="5" y="5" width="65" height="100" rx="4.46" ry="4.46"/>
    <path class="cls-10" d="m15.49,10.14c-1.35-.56-2.42-2.04-2.48-2.12h0s0,0,0,0c0,0,0,0,0,0h0c-.06.1-1.13,1.57-2.48,2.14,0,0-2.79,1.11-2.49,3.49,0,1.04,1.12,1.88,2.49,1.88.98,0,1.82-.42,2.23-1.04-.64,1.94-2.24,3.54-2.24,3.54h4.99s-1.62-1.62-2.25-3.57c.4.64,1.26,1.07,2.25,1.07,1.38,0,2.49-.84,2.49-1.88,0-.02,0-.04,0-.06.24-2.33-2.5-3.43-2.5-3.43Z"/>
    <path class="cls-10" d="m64.49,99.86c-1.35.56-2.42,2.04-2.48,2.12h0s0,0,0,0c0,0,0,0,0,0h0c-.06-.1-1.13-1.57-2.48-2.14,0,0-2.79-1.11-2.49-3.49,0-1.04,1.12-1.88,2.49-1.88.98,0,1.82.42,2.23,1.04-.64-1.94-2.24-3.54-2.24-3.54h4.99s-1.62,1.62-2.25,3.57c.4-.64,1.26-1.07,2.25-1.07,1.38,0,2.49.84,2.49,1.88,0,.02,0,.04,0,.06.24,2.33-2.5,3.43-2.5,3.43Z"/>
  </g>
  <g id="People">
    <g>
      <path class="cls-5" d="m42.08,61.14s25.07-5.95,20.42,16.43H12.5s-4.42-20.87,18.43-16.35l11.16-.08Z"/>
      <polygon class="cls-3" points="29.11 60.9 31.35 61.49 33.41 68.99 41.9 69.46 44.08 60.42 48.62 62.57 47.56 70.27 28.75 68.93 26.33 62 29.11 60.9"/>
      <path class="cls-4" d="m33.86,55.73s.18,3.89-1.4,5.41c0,0,4.34,3.64,10.1,0,0,0-1.47-1.84-.66-5.82,0,0-5.1-5.09-8.04.4Z"/>
      <path class="cls-2" d="m20.5,69.89s-.53,5.36,1.97,7.68h15.03v-8.57s-2.2-2.33-9.54-1.74c0,0-7.48-1.05-7.46,2.64Z"/>
      <path class="cls-2" d="m37.5,68.99v8.57h14.99s3.09-1.98.49-8.84c0,0-.27-2.37-4.65-1.61,0,0-9.37.11-10.83,1.88Z"/>
      <path class="cls-1" d="m46.75,46.68s1.87,4.74.58,7.83c0,0-1.16-.67-1.89-1.34,0,0,.32,2.31-1.59,3.34,0,0-1.23.18-1.95-1.2,0,0,1.99-11.16,4.85-8.64Z"/>
      <path class="cls-1" d="m28.38,48.07s-2.58,4.21.44,7.82c0,0,.96,0,1.58-1.38,0,0-.27,2.05.75,2.91,0,0,1.37.02,2.71-1.7,0,0-3.54-8.64-5.48-7.66Z"/>
      <path class="cls-8" d="m46,45.19h0c-.02-4.68-3.81-8.47-8.5-8.47s-8.48,3.79-8.5,8.47h0s-2.15,8.3,8.5,12.37c10.65-4.07,8.5-12.37,8.5-12.37Z"/>
      <path class="cls-1" d="m47.99,43.32s1.71,4.13-.16,6.41c0,0-3.16-2.62-2.43-6.55,0,0-.01-3.38,2.59.14Z"/>
      <path class="cls-1" d="m26.4,44.65s-.94,4.36.51,6.34c0,0,3.33-1.92,2.09-5.8l-2.6-.55Z"/>
      <path class="cls-5" d="m30.93,61.22s2.5-1.72,6.11,2.05c0,0-2.98.61-3.18,2.08,0,0-3.27-.48-2.94-4.13Z"/>
      <path class="cls-5" d="m37.04,63.27s3.54-2.74,6.39-2.01c0,0,1.86,2.22-2.77,4.08,0,0,.67-1.53-3.62-2.08Z"/>
      <path class="cls-2" d="m43.64,59.14s12.49-5.79,17.7,3.95c0,0-.85,3.84-5.32,5.85,0,0-6.41.25-9.09-3.05l-3.29-6.74Z"/>
      <path class="cls-2" d="m30.18,59.44s-13.64-3.66-17.68,5.78c0,0,2.71,4.1,6.12,4.66,0,0,5.98.3,9.34-2.63,0,0,2.73-4.09,2.22-7.81Z"/>
      <path class="cls-1" d="m51.14,42.91c-1.9-3.91-6.16-6.19-6.16-6.19,1.2-.45,1.47-1.76,1.47-1.76-3.27-1.33-11.14.15-11.14.15,0,0,.84-1.42.47-2.61,0,0-1.38-.73-3.1,2.36,0,0-3.08-.81-4.72.49,0,0,.32,1.09,2.03,1.36,0,0-6.14,2.87-6.65,5.4,0,0,1.04.33,2.5-.16,0,0-2.41,2.79-1.87,5.38,0,0,3.83-2.46,5.27-3.34-1.19,1.2-.86,2.73-.49,3.82,0,0,3.71.17,7.31-5.86,4.32,5.19,9.54,4.35,9.54,4.35.82-3.24-.58-4.11-.58-4.11,4.11,2.44,6.12.7,6.12.7Z"/>
    </g>
    <ellipse class="cls-11" cx="33.5" cy="50.57" rx="1.12" ry="1.62"/>
    <ellipse class="cls-11" cx="41.5" cy="50.57" rx="1.12" ry="1.62"/>
    <path class="cls-7" d="m35.16,53.62s2.11,2.01,4.68,0"/>
    <line class="cls-6" x1="31.15" y1="48.36" x2="35.85" y2="48.77"/>
    <line class="cls-6" x1="43.85" y1="48.36" x2="39.15" y2="48.77"/>
  </g>
</svg>