<?xml version="1.0" encoding="UTF-8"?>
<svg xmlns="http://www.w3.org/2000/svg" xmlns:xlink="http://www.w3.org/1999/xlink" viewBox="0 0 75 110">
  <defs>
    <style>
      .cls-1, .cls-2, .cls-3, .cls-4, .cls-5, .cls-6, .cls-7, .cls-8, .cls-9 {
        stroke: #0d0d0d;
        stroke-linecap: round;
        stroke-linejoin: round;
      }

      .cls-1, .cls-10 {
        fill: #6e50e5;
      }

      .cls-2 {
        fill: #bfbfbf;
      }

      .cls-3 {
        fill: #e5e5e5;
      }

      .cls-4 {
        fill: url(#linear-gradient-4);
      }

      .cls-5 {
        fill: url(#linear-gradient-2);
      }

      .cls-6 {
        fill: url(#linear-gradient-5);
      }

      .cls-7 {
        fill: url(#linear-gradient-3);
      }

      .cls-8 {
        fill: none;
        stroke-width: .75px;
      }

      .cls-9 {
        fill: url(#linear-gradient);
      }

      .cls-10, .cls-11, .cls-12 {
        stroke-width: 0px;
      }

      .cls-11 {
        fill: #0d0d0d;
      }

      .cls-12 {
        fill: #fff;
      }
    </style>
    <linearGradient id="linear-gradient" x1="37.64" y1="56.49" x2="37.64" y2="62.78" gradientUnits="userSpaceOnUse">
      <stop offset=".5" stop-color="#6e50e5"/>
      <stop offset="1" stop-color="#e5e5e5"/>
    </linearGradient>
    <linearGradient id="linear-gradient-2" x1="28.7" y1="48.9" x2="26.53" y2="55.96" xlink:href="#linear-gradient"/>
    <linearGradient id="linear-gradient-3" x1="46.82" y1="49.8" x2="48.23" y2="56.1" xlink:href="#linear-gradient"/>
    <linearGradient id="linear-gradient-4" x1="38.79" y1="39.55" x2="38.68" y2="53.12" xlink:href="#linear-gradient"/>
    <linearGradient id="linear-gradient-5" x1="33.28" y1="31" x2="31" y2="40.67" xlink:href="#linear-gradient"/>
  </defs>
  <g id="Base">
    <rect class="cls-10" width="75" height="110" rx="5.02" ry="5.02"/>
    <rect class="cls-12" x="5" y="5" width="65" height="100" rx="4.46" ry="4.46"/>
    <path class="cls-10" d="m18,12.99c0-1.01-.75-1.83-1.71-1.97v-.03c-.07,0-.16,0-.25,0-.01,0-.03,0-.04,0-.31,0-.6.08-.86.2-.13.04-.26.09-.4.13.18-.52.28-.99.26-1.33,0-1.1-.9-2-2-2s-2,.9-2,2c-.02.31.07.74.22,1.22-.48-.16-.91-.25-1.22-.23-1.1,0-2,.9-2,2s.9,2,2,2c.58.05,1.56-.31,2.5-.73-.73,1.95-2.01,3.74-2.01,3.74h5.01s-1.32-1.85-2.05-3.84c0-.01.01-.03.02-.04.55.26,1.14.5,1.66.66.26.13.55.2.86.2.01,0,.03,0,.04,0,.09,0,.17.01.24,0v-.03c.97-.14,1.71-.96,1.71-1.97Z"/>
    <path class="cls-10" d="m67,97.01c0,1.01-.75,1.83-1.71,1.97v.03c-.07,0-.16,0-.25,0-.01,0-.03,0-.04,0-.31,0-.6-.08-.86-.2-.13-.04-.26-.09-.4-.13.18.52.28.99.26,1.33,0,1.1-.9,2-2,2s-2-.9-2-2c-.02-.31.07-.74.22-1.22-.48.16-.91.25-1.22.23-1.1,0-2-.9-2-2s.9-2,2-2c.58-.05,1.56.31,2.5.73-.73-1.95-2.01-3.74-2.01-3.74h5.01s-1.32,1.85-2.05,3.84c0,.01.01.03.02.04.55-.26,1.14-.5,1.66-.66.26-.13.55-.2.86-.2.01,0,.03,0,.04,0,.09,0,.17-.01.24,0v.03c.97.14,1.71.96,1.71,1.97Z"/>
  </g>
  <g id="People">
    <g>
      <path class="cls-2" d="m28.93,52.11s-4.75,3.13.57,5.49l-.57-5.49Z"/>
      <path class="cls-2" d="m46.07,52.11s4.75,3.13-.57,5.49l.57-5.49Z"/>
      <circle class="cls-1" cx="30.38" cy="30.25" r="1.36"/>
      <path class="cls-3" d="m40.82,65.63h-6.64s-16.87-4.05-16.18,15.48h39c.69-19.52-16.18-15.48-16.18-15.48Z"/>
      <path class="cls-1" d="m37.5,65.62c-11.93-2.16-16.07,3.25-16.07,3.25,2.43,6.61,16.07,6.69,16.07,6.69,0,0,13.64-.08,16.07-6.69,0,0-4.14-5.42-16.07-3.25Z"/>
      <path class="cls-9" d="m29.66,57.27s-1.56,5.14,2.27,5.11c0,0,1.4.19,2.45-.84l6.86.02s.7.99,3.2.84c0,0,2.51-1.77.98-4.8l-15.77-.33Z"/>
      <path class="cls-5" d="m27.53,48.67s-2.6,4.57-1.15,7.27c0,0,1.47,1.18,2.6-2.94,0,0-.43-5.79-1.45-4.33Z"/>
      <path class="cls-7" d="m48.23,50.74s1.51,3.74.36,5.26c0,0-1.33,1.12-2.59-3.89,0,0-1.1-4.3,2.23-1.37Z"/>
      <path class="cls-2" d="m32.64,65.63s1.15-1.04.72-4.28c0,0,4.38-4.01,7.88.2,0,0-1.12,1.99.29,4.08,0,0-.77,1.49-4.03,1.51,0,0-3.19.47-4.86-1.51Z"/>
      <path class="cls-2" d="m46,52.11c0-4.69-3.81-8.5-8.5-8.5s-8.5,3.81-8.5,8.5c0,0-2.46,8.22,8.5,10.75,10.96-2.53,8.5-10.75,8.5-10.75Z"/>
      <path class="cls-4" d="m32.5,42.04s7.87-2.06,13.41,2.71c0,0,1.7,2.17,3.62,2.23,0,0,.98,2.44-1.46,2.53,0,0,1.64,4.04-5.03,1.81,0,0-7.64-1.25-8.65-4.18,0,0-.61,7.3-3.51,5.22,0,0-2.3,2-3.02-.87,0,0-1.47-7.06,4.65-9.45Z"/>
      <ellipse class="cls-1" cx="48.42" cy="59.25" rx="1.16" ry="1.36"/>
      <ellipse class="cls-1" cx="25.84" cy="59.09" rx="1.15" ry="1.36"/>
      <path class="cls-6" d="m30.17,41.01s-3.86-2.55-1.42-5.86c0,0,1.9-1.33,2.12,1.28,0,0,.87-1.97,1.36-2.63,0,0,2.15-4.56,3.91,1.03,0,0,.22,5.32-5.97,6.19Z"/>
      <path class="cls-2" d="m47.77,65.73s-.61,4.26.2,7.84c0,0,1.68,4.15.74,7.54h-5.88s3.21-5.81-.15-11.26c0,0-1.48-2.56-1.45-4.21,0,0,1.88-.93,6.54.1Z"/>
      <path class="cls-2" d="m27.23,65.73s.61,4.26-.2,7.84c0,0-1.68,4.15-.74,7.54h5.88s-2.82-5.73-.69-11.33c0,0,1.89-2.56,1.86-4.21,0,0-1.45-.86-6.11.16Z"/>
      <path class="cls-3" d="m48.11,65.67s.5-1.16-.16-1.91c0,0-3.63-.49-6.16.33,0,0-1.23.23-.63,1.49,0,0,.93,3.4,1.86,4.21,0,0,3.46,1.67,4.87-.33l.22-3.79Z"/>
      <path class="cls-3" d="m26.39,65.67s-.5-1.16.16-1.91c0,0,3.63-.49,6.16.33,0,0,1.23.23.63,1.49,0,0-.93,3.4-1.86,4.21,0,0-3.46,1.67-4.87-.33l-.22-3.79Z"/>
    </g>
    <circle class="cls-11" cx="33.5" cy="56.11" r="1.25"/>
    <circle class="cls-11" cx="41.5" cy="56.11" r="1.25"/>
    <line class="cls-8" x1="41.5" y1="56.03" x2="42.75" y2="57.02"/>
    <line class="cls-8" x1="33.5" y1="56.03" x2="32.25" y2="57.02"/>
    <path class="cls-8" d="m39.85,53.25s1.65-.97,3.31.11"/>
    <path class="cls-8" d="m31.85,53.25s1.65-.97,3.31.11"/>
    <path class="cls-8" d="m35.97,58.77s1.55,1.5,3.05,0"/>
  </g>
</svg>