<?xml version="1.0" encoding="UTF-8"?>
<svg xmlns="http://www.w3.org/2000/svg" viewBox="0 0 75 110">
  <defs>
    <style>
      .cls-1 {
        fill: gray;
      }

      .cls-1, .cls-2, .cls-3, .cls-4, .cls-5, .cls-6, .cls-7 {
        stroke: #0d0d0d;
        stroke-linecap: round;
        stroke-linejoin: round;
      }

      .cls-2, .cls-8 {
        fill: #8fe539;
      }

      .cls-3 {
        fill: #bfbfbf;
      }

      .cls-4 {
        fill: #e5e5e5;
      }

      .cls-5, .cls-6 {
        fill: none;
      }

      .cls-6 {
        stroke-width: .75px;
      }

      .cls-7 {
        fill: #f2f2f2;
      }

      .cls-9 {
        fill: #0d0d0d;
      }

      .cls-9, .cls-8, .cls-10 {
        stroke-width: 0px;
      }

      .cls-10 {
        fill: #fff;
      }
    </style>
  </defs>
  <g id="Base">
    <rect class="cls-8" width="75" height="110" rx="5.02" ry="5.02"/>
    <rect class="cls-10" x="5" y="5" width="65" height="100" rx="4.46" ry="4.46"/>
    <path class="cls-8" d="m17.99,10.58s0-.05,0-.08c0-1.38-1.12-2.5-2.49-2.5-1.14,0-2.11.77-2.4,1.83-.03.1-.15.1-.18,0-.29-1.05-1.26-1.83-2.4-1.83-1.38,0-2.49,1.12-2.49,2.5-.3,3.17,2.49,4.65,2.49,4.65,1.35.75,2.42,2.72,2.48,2.83v.02s0,0,0,0c0,0,0,0,0,0v-.02c.06-.11,1.13-2.08,2.48-2.83,0,0,2.74-1.46,2.5-4.57Z"/>
    <path class="cls-8" d="m66.99,99.42s0,.05,0,.08c0,1.38-1.12,2.5-2.49,2.5-1.14,0-2.11-.77-2.4-1.83-.03-.1-.15-.1-.18,0-.29,1.05-1.26,1.83-2.4,1.83-1.38,0-2.49-1.12-2.49-2.5-.3-3.17,2.49-4.65,2.49-4.65,1.35-.75,2.42-2.72,2.48-2.83v-.02s0,0,0,0c0,0,0,0,0,0v.02c.06.11,1.13,2.08,2.48,2.83,0,0,2.74,1.46,2.5,4.57Z"/>
  </g>
  <g id="People">
    <g>
      <path class="cls-3" d="m48.06,45.52s1.15-9.97-3.42-14.97c0,0-4.64,1.71-12.15-1.06,0,0-.73,2.9,5.95,4.77,0,0,.14,3.18-8.43,3.4,0,0,6.74,9.39,18.06,7.86Z"/>
      <path class="cls-1" d="m27.96,56.83s-.33,3.07,2.17,6.11c0,0,.79-2.49,2.3.89,0,0,.59.8,2.06-.92,0,0-3.37-11.1-5.66-9.39l-.88,3.31Z"/>
      <path class="cls-1" d="m47.04,56.83s.33,3.07-2.17,6.11c0,0-.79-2.49-2.3.89,0,0-.59.8-2.06-.92,0,0,3.37-11.1,5.66-9.39l.88,3.31Z"/>
      <path class="cls-4" d="m54.16,77.33l-16.66-3.87-17.04,3.87-.46,3.19h35l-.84-3.19Z"/>
      <polygon class="cls-1" points="32.5 80.52 42.73 80.47 37.5 73.45 32.5 80.52"/>
      <path class="cls-3" d="m37.5,74.41l-3.96,5.9c-5.74,1.06-15.02-2.32-15.02-2.32,1.34-1.3,2.25-4.78,2.25-4.78,1.77-5.44,5.88-5.85,5.88-5.85,5.13,1.02,7.15,0,7.15,0h7.37s2.02,1.02,7.15,0c0,0,4.11.41,5.88,5.85,0,0,.91,3.48,2.25,4.78,0,0-9.28,3.38-15.02,2.32l-3.96-5.9"/>
      <path class="cls-2" d="m22.88,69.5s.54,2.93,14.62,6.02c0,0,6.72-.13,14.63-6.02,0,0-2.33-2.49-5.43-2.1l-20.03-.04s-1.95-.64-3.79,2.14Z"/>
      <path class="cls-2" d="m34,72.02s-1.29-2.92-5.69-4.61c0,0-1.56-2.59,5.69-2.42h7c7.25-.16,5.69,2.42,5.69,2.42-4.4,1.69-5.69,4.61-5.69,4.61"/>
      <path class="cls-7" d="m40.64,63.06h-6.27s.49,2.55-1.11,5.26c0,0-.2,1.81,4.25,2.19,3.56-.62,3.84-2.19,3.84-2.19-.93-2.27-.7-5.26-.7-5.26Z"/>
      <path class="cls-2" d="m37.5,35.82s5.86,2.86,10.25,1.76l.58,4.2s-11.52-1.31-15.07-4.08l4.25-1.88Z"/>
      <path class="cls-3" d="m40.5,40.24s7.23,1.52,13.23,1.2c0,0,14.53,3.26-5.54,12.38,0,0-12.88-1.37-21.7-3.65,0,0-5.7-.7-9.84-7.31,0,0-4.43-13.14,14.63-6.93,0,0,3.23,2.37,9.23,4.32Z"/>
      <path class="cls-7" d="m45.5,53.52c0-4.42-3.58-8-8-8s-8,3.58-8,8c0,0-1.99,8.51,8,10.75,9.99-2.24,8-10.75,8-10.75Z"/>
      <line class="cls-5" x1="35.5" y1="71.58" x2="39.5" y2="73.45"/>
      <line class="cls-5" x1="35.5" y1="73.45" x2="39.5" y2="71.58"/>
      <path class="cls-7" d="m42.5,70.45s7.18.72,7.59-2.57c0,0-1.07-1.25-5.09-.12,0,0-2.44,1.29-2.5,2.69Z"/>
      <path class="cls-7" d="m32.5,70.45s-7.18.72-7.59-2.57c0,0,1.07-1.25,5.09-.12,0,0,2.44,1.29,2.5,2.69Z"/>
      <path class="cls-1" d="m37.72,41.3s-10.07-.26-11.23,8.87c0,0-.92,3.52.55,7.63,0,0,.94-.17,3.89-6.5,0,0,6.22-.88,11.59-3.32,0,0,2.17,6.64,5.32,10.71,0,0,1.42-5.14-.98-11.91,0,0-1.86-5.56-9.14-5.47Z"/>
    </g>
    <ellipse class="cls-9" cx="33.5" cy="56.52" rx="1.25" ry="1.5"/>
    <ellipse class="cls-9" cx="41.5" cy="56.52" rx="1.25" ry="1.5"/>
    <line class="cls-6" x1="41.5" y1="56.52" x2="42.91" y2="55.36"/>
    <line class="cls-6" x1="33.5" y1="56.52" x2="32.09" y2="55.36"/>
    <path class="cls-6" d="m35.47,59.25s.97,1.03,2.07,0c0,0,1.09,1.19,1.99,0"/>
    <path class="cls-6" d="m40.17,53.29s1.21-1.23,2.66,0"/>
    <path class="cls-6" d="m32.17,53.29s1.21-1.23,2.66,0"/>
  </g>
</svg>