<?xml version="1.0" encoding="UTF-8"?>
<svg xmlns="http://www.w3.org/2000/svg" viewBox="0 0 75 110">
  <defs>
    <style>
      .cls-1 {
        fill: #404040;
      }

      .cls-1, .cls-2, .cls-3, .cls-4, .cls-5, .cls-6 {
        stroke: #0d0d0d;
        stroke-linecap: round;
        stroke-linejoin: round;
      }

      .cls-2 {
        fill: #e5e5e5;
      }

      .cls-3, .cls-7 {
        fill: #e52e2e;
      }

      .cls-4, .cls-8 {
        fill: #fff;
      }

      .cls-5, .cls-6 {
        fill: none;
      }

      .cls-6 {
        stroke-width: .75px;
      }

      .cls-9 {
        fill: #0d0d0d;
      }

      .cls-9, .cls-8, .cls-7 {
        stroke-width: 0px;
      }
    </style>
  </defs>
  <g id="Base">
    <rect class="cls-7" width="75" height="110" rx="5.02" ry="5.02"/>
    <rect class="cls-8" x="5" y="5" width="65" height="100" rx="4.46" ry="4.46"/>
    <rect class="cls-7" x="9.46" y="9.46" width="7.07" height="7.07" transform="translate(-5.38 13) rotate(-45)"/>
    <rect class="cls-7" x="58.46" y="93.46" width="7.07" height="7.07" transform="translate(-50.43 72.25) rotate(-45)"/>
  </g>
  <g id="People">
    <g>
      <path class="cls-2" d="m38.76,34.42c-.38-.12-.79-.17-1.26-.11,0,0-8.76.53-8.24,7.46,0,0-.54,6.09.6,9.73,0,0,1.69-1.58,2.96,2.71l1.45-1.94h6.46l1.45,1.94c1.27-4.3,2.96-2.71,2.96-2.71,1.29-2.01.86-9.72.86-9.72.41-5.43-4.46-7.04-7.24-7.37Z"/>
      <path class="cls-1" d="m50.49,59.38c-5.78-.68-10.55-2.32-10.55-2.32l-2.44-.34-2.44.34s-4.77,1.64-10.55,2.32c0,0-3.87.44-3.76,11.84,0,0,.43,5.05.75,6.6h32c.33-1.55.75-6.6.75-6.6.1-11.4-3.76-11.84-3.76-11.84Z"/>
      <path class="cls-3" d="m45,77.82c0-2.5.61-6.3.61-6.3,1.58-5.05,1.96-12.57,1.96-12.57-4.73-2.23-10.07-2.23-10.07-2.23-5.52-.23-10.47,2.59-10.47,2.59,0,0,.35,7.15,1.93,12.2,0,0,.62,3.8.61,6.3h15.43Z"/>
      <path class="cls-1" d="m37.5,70.32c-4.37-4.05-5.55-11.98-5.55-11.98,0,0,2.11-1.61,5.55-1.61,0,0,3.93.13,5.55,1.61,0,0-1.19,7.94-5.55,11.98"/>
      <polygon class="cls-2" points="38.5 63.41 39.71 67.59 37.58 70.91 35.29 67.59 36.46 63.41 38.5 63.41"/>
      <path class="cls-4" d="m40.88,52.29l-3.38.36-3.23-.36c1.14,2.61-.43,7.03-.43,7.03h7.47s-1.57-4.42-.43-7.03Z"/>
      <path class="cls-4" d="m46,42.82c0-4.69-3.81-8.5-8.5-8.5s-8.5,3.81-8.5,8.5c0,1.76.54,3.4,1.46,4.76,2.49,4.98,7.04,7.2,7.04,7.2,0,0,4.56-2.23,7.04-7.2.92-1.36,1.46-3,1.46-4.76Z"/>
      <path class="cls-3" d="m43.05,58.33s.63,2.98,1.95,4.92c0,0-2.62,1.09-5.29,4.34,0,0,3.12-5.53,3.35-9.26Z"/>
      <path class="cls-3" d="m42.19,65.09s-.55,2.92,0,3.82c0,0-4.05,0-4.69,1.41,0,0,3.17-4.31,4.69-5.23Z"/>
      <path class="cls-2" d="m37.69,59.17h-3.01s.54,3.14,1.79,4.23h2.04c1.24-1.09,1.83-4.23,1.83-4.23h-2.64Z"/>
      <path class="cls-3" d="m31.95,58.33s-.63,2.98-1.95,4.92c0,0,2.62,1.09,5.29,4.34,0,0-3.12-5.53-3.35-9.26Z"/>
      <path class="cls-3" d="m32.81,65.09s.55,2.92,0,3.82c0,0,4.05,0,4.69,1.41,0,0-3.17-4.31-4.69-5.23Z"/>
      <line class="cls-5" x1="37.5" y1="70.32" x2="37.5" y2="77.82"/>
      <path class="cls-1" d="m31.98,58.19s2.97-1.34,5.52,1.48c0,0-2.87.44-3.2,1.14,0,0-1.1-2.21-2.32-2.63Z"/>
      <path class="cls-1" d="m43.02,58.19s-2.97-1.34-5.52,1.48c0,0,2.87.44,3.2,1.14,0,0,1.1-2.21,2.32-2.63Z"/>
      <path class="cls-2" d="m45.5,32.18s-1.35,1.93-3.69.9c0,0-2.7-.61-4.31.89-1.61-1.5-4.31-.89-4.31-.89-2.33,1.03-3.62-.57-3.62-.57-5.54,2.77.34,10.19.34,10.19-.93-6.6,3.63-3.18,3.63-3.18.13-3.5,4.04.48,4.04.48,0,0,3.75-3.98,3.88-.48,0,0,4.5-3.81,3.56,2.79,0,0,6.7-6.21.48-10.12Z"/>
      <path class="cls-4" d="m45.86,42.33s1.97-2.52,2.17,1.4c0,0-.43,5.05-2.53,2.22l.36-3.62Z"/>
      <path class="cls-4" d="m29.14,42.33s-1.97-2.52-2.17,1.4c0,0,.43,5.05,2.53,2.22l-.36-3.62Z"/>
    </g>
    <ellipse class="cls-9" cx="33.5" cy="45.82" rx="1" ry="1.5"/>
    <ellipse class="cls-9" cx="41.5" cy="45.82" rx="1" ry="1.5"/>
    <path class="cls-6" d="m35.09,50.03s4.13.92,4.83-.69"/>
    <path class="cls-6" d="m31.83,41.73s2.26,1.14,3.35.92"/>
    <path class="cls-6" d="m43.17,41.73s-2.26,1.14-3.35.92"/>
  </g>
</svg>