<?xml version="1.0" encoding="UTF-8"?>
<svg xmlns="http://www.w3.org/2000/svg" viewBox="0 0 75 110">
  <defs>
    <style>
      .cls-1 {
        fill: gray;
      }

      .cls-1, .cls-2, .cls-3, .cls-4, .cls-5, .cls-6, .cls-7 {
        stroke: #0d0d0d;
        stroke-linecap: round;
        stroke-linejoin: round;
      }

      .cls-2 {
        fill: #bfbfbf;
      }

      .cls-3 {
        fill: #e5e5e5;
      }

      .cls-4, .cls-8 {
        fill: #ff4079;
      }

      .cls-5, .cls-6 {
        fill: none;
      }

      .cls-6 {
        stroke-width: .75px;
      }

      .cls-7 {
        fill: #f2f2f2;
      }

      .cls-9 {
        fill: #0d0d0d;
      }

      .cls-9, .cls-10, .cls-8 {
        stroke-width: 0px;
      }

      .cls-10 {
        fill: #fff;
      }
    </style>
  </defs>
  <g id="Base">
    <rect class="cls-8" x="0" width="75" height="110" rx="5.02" ry="5.02"/>
    <rect class="cls-10" x="5" y="4.92" width="65" height="100" rx="4.46" ry="4.46"/>
    <path class="cls-8" d="m18,12.99c0-1.01-.75-1.83-1.71-1.97v-.03c-.07,0-.16,0-.25,0-.01,0-.03,0-.04,0-.31,0-.6.08-.86.2-.13.04-.26.09-.4.13.18-.52.28-.99.26-1.33,0-1.1-.9-2-2-2s-2,.9-2,2c-.02.31.07.74.22,1.22-.48-.16-.91-.25-1.22-.23-1.1,0-2,.9-2,2s.9,2,2,2c.58.05,1.56-.31,2.5-.73-.73,1.95-2.01,3.74-2.01,3.74h5.01s-1.32-1.85-2.05-3.84c0-.01.01-.03.02-.04.55.26,1.14.5,1.66.66.26.13.55.2.86.2.01,0,.03,0,.04,0,.09,0,.17.01.24,0v-.03c.97-.14,1.71-.96,1.71-1.97Z"/>
    <path class="cls-8" d="m67,97.01c0,1.01-.75,1.83-1.71,1.97v.03c-.07,0-.16,0-.25,0-.01,0-.03,0-.04,0-.31,0-.6-.08-.86-.2-.13-.04-.26-.09-.4-.13.18.52.28.99.26,1.33,0,1.1-.9,2-2,2s-2-.9-2-2c-.02-.31.07-.74.22-1.22-.48.16-.91.25-1.22.23-1.1,0-2-.9-2-2s.9-2,2-2c.58-.05,1.56.31,2.5.73-.73-1.95-2.01-3.74-2.01-3.74h5.01s-1.32,1.85-2.05,3.84c0,.01.01.03.02.04.55-.26,1.14-.5,1.66-.66.26-.13.55-.2.86-.2.01,0,.03,0,.04,0,.09,0,.17-.01.24,0v.03c.97.14,1.71.96,1.71,1.97Z"/>
  </g>
  <g id="People">
    <g>
      <path class="cls-1" d="m56.55,67.78c-.57-9.69-12.81-5.93-12.81-5.93l-6.24.19-6.24-.19s-12.24-3.76-12.81,5.93c0,0-1.22,4.47.82,8.92h36.48c2.03-4.44.82-8.92.82-8.92Z"/>
      <path class="cls-5" d="m48.3,61.15s-1.85,4.79-.61,10.4c0,0,.09,3.71,1.03,5.15"/>
      <path class="cls-5" d="m26.7,61.15s1.85,4.79.61,10.4c0,0-.09,3.71-1.03,5.15"/>
      <path class="cls-4" d="m47.7,71.54s5.87-.92,8.86-3.77c0,0,.63,3.12.25,5.08,0,0-4.81,2.27-8.8,1.62,0,0-.3-1.29-.3-2.93Z"/>
      <path class="cls-4" d="m27.3,71.54s-6.73-.38-8.86-3.77c0,0-.61,2.33-.2,5.42,0,0,4.6,1.94,8.67,1.4,0,0,.57-1.92.39-3.05Z"/>
      <path class="cls-2" d="m37.5,62.03c-4.41-.11-10.8-.89-10.8-.89,1.35,3.31,1.04,7.26,1.04,7.26,0,0-2.72,4.78-.39,8.29h20.36s1.96-2.53-.38-7.78c0,0-.38-3.1.99-7.76,0,0-6.08,1-10.8.89Z"/>
      <path class="cls-3" d="m42.55,55.43l-5.05,2.64-5.05-2.64s.92,4.72-1.2,6.42c0,0,.96,3.5,6.24,3.35,5.28.15,6.24-3.35,6.24-3.35-2.11-1.7-1.2-6.42-1.2-6.42Z"/>
      <path class="cls-4" d="m29.52,61.44s-.17,4.94,7.32,6.33c0,0,8.36.6,8.63-6.33l-1.74.41s-1.57,3.52-6.24,3.35c0,0-3.9.41-6.24-3.35l-1.74-.41Z"/>
      <path class="cls-2" d="m51.17,47.96c.43-4.7-2.72-6.59-2.72-6.59-1.43-7.6-10.95-8.05-10.95-8.05,0,0-9.52.45-10.95,8.05,0,0-3.15,1.89-2.72,6.59,0,0-3.37,1.87-1.96,4.64,0,0,.51,2.15,3.95,2.95,0,0,3.55,2.24,6.64,0l5.05-19.15,5.05,19.15c3.1,2.24,6.64,0,6.64,0,3.44-.8,3.95-2.95,3.95-2.95,1.41-2.77-1.96-4.64-1.96-4.64Z"/>
      <path class="cls-7" d="m46.83,45.53s.78-1.87,4.52-1.54c0,0,.12,3-4.91,5.21,0,0-.63-2.68.39-3.66Z"/>
      <path class="cls-7" d="m28.42,45.53s-.78-1.87-4.52-1.54c0,0-.12,3,4.91,5.21,0,0,.63-2.68-.39-3.66Z"/>
      <line class="cls-5" x1="26.91" y1="47.12" x2="25.85" y2="50.43"/>
      <path class="cls-7" d="m37.5,36.4s-11.69-.45-8.94,11.76c0,0-.97,7.03,8.94,10.03,9.9-3.01,8.94-10.03,8.94-10.03,2.76-12.21-8.94-11.76-8.94-11.76Z"/>
      <path class="cls-2" d="m42.55,37.47c-1.22-.09-2.84,1.31-2.84,1.31-.07,2.85-5.28,3.91-5.28,3.91-.7,2.04-4.51,2.77-4.51,2.77-2.44,2.69-4.98,1.34-4.98,1.34-2.04-1.02,0-4.11,0-4.11-.5-3.01,1.81-4.82,1.81-4.82,4.5-5,10.75-4.57,10.75-4.57,0,0,5.2.76,6.83,2.15"/>
      <path class="cls-4" d="m42.55,37.47c3.99,1.02,5.16,6.41,5.16,6.41-.14.86-.89,1.74-.89,1.74-2-7.01-7.11-6.84-7.11-6.84,0,0,.88-1.82,2.84-1.31Z"/>
      <polyline class="cls-6" points="42.55 37.47 42.55 39.59 45 38.87 45 41.77 46.97 41.77 46.25 44"/>
      <line class="cls-5" x1="47.7" y1="47.3" x2="48.8" y2="51"/>
      <circle class="cls-4" cx="48.98" cy="51.28" r="1.28"/>
      <circle class="cls-4" cx="25.64" cy="51" r="1.28"/>
    </g>
    <ellipse class="cls-9" cx="41" cy="48.19" rx="1.25" ry="1.75"/>
    <ellipse class="cls-9" cx="34" cy="48.19" rx="1.25" ry="1.75"/>
    <line class="cls-6" x1="41" y1="48.19" x2="43.31" y2="47.3"/>
    <line class="cls-6" x1="34" y1="48.19" x2="31.69" y2="47.3"/>
    <path class="cls-6" d="m34.81,52.64s2.53,2.49,5.37,0"/>
    <path class="cls-6" d="m39.23,44.62s1.77-1.68,4.11.46"/>
    <path class="cls-6" d="m35.65,44.93s-1.65-1.71-3.99.16"/>
  </g>
</svg>