<?xml version="1.0" encoding="UTF-8"?>
<svg xmlns="http://www.w3.org/2000/svg" viewBox="0 0 75 110">
  <defs>
    <style>
      .cls-1, .cls-2, .cls-3, .cls-4, .cls-5, .cls-6, .cls-7, .cls-8, .cls-9, .cls-10 {
        stroke: #0d0d0d;
        stroke-linecap: round;
        stroke-linejoin: round;
      }

      .cls-1, .cls-11 {
        fill: #3dbcf2;
      }

      .cls-2 {
        fill: gray;
      }

      .cls-3 {
        fill: #bfbfbf;
      }

      .cls-4 {
        fill: #e5e5e5;
      }

      .cls-5, .cls-12, .cls-10 {
        fill: #fff;
      }

      .cls-6, .cls-7 {
        fill: none;
      }

      .cls-7, .cls-9, .cls-10 {
        stroke-width: .75px;
      }

      .cls-8 {
        fill: #f2f2f2;
      }

      .cls-9, .cls-13 {
        fill: #0d0d0d;
      }

      .cls-11, .cls-13, .cls-12 {
        stroke-width: 0px;
      }
    </style>
  </defs>
  <g id="Base">
    <rect class="cls-11" x="0" width="75" height="110" rx="5.02" ry="5.02"/>
    <rect class="cls-12" x="5" y="5" width="65" height="100" rx="4.46" ry="4.46"/>
    <path class="cls-11" d="m15.49,10.14c-1.35-.56-2.42-2.04-2.48-2.12h0s0,0,0,0c0,0,0,0,0,0h0c-.06.1-1.13,1.57-2.48,2.14,0,0-2.79,1.11-2.49,3.49,0,1.04,1.12,1.88,2.49,1.88.98,0,1.82-.42,2.23-1.04-.64,1.94-2.24,3.54-2.24,3.54h4.99s-1.62-1.62-2.25-3.57c.4.64,1.26,1.07,2.25,1.07,1.38,0,2.49-.84,2.49-1.88,0-.02,0-.04,0-.06.24-2.33-2.5-3.43-2.5-3.43Z"/>
    <path class="cls-11" d="m64.49,99.86c-1.35.56-2.42,2.04-2.48,2.12h0s0,0,0,0c0,0,0,0,0,0h0c-.06-.1-1.13-1.57-2.48-2.14,0,0-2.79-1.11-2.49-3.49,0-1.04,1.12-1.88,2.49-1.88.98,0,1.82.42,2.23,1.04-.64-1.94-2.24-3.54-2.24-3.54h4.99s-1.62,1.62-2.25,3.57c.4-.64,1.26-1.07,2.25-1.07,1.38,0,2.49.84,2.49,1.88,0,.02,0,.04,0,.06.24,2.33-2.5,3.43-2.5,3.43Z"/>
  </g>
  <g id="People">
    <g>
      <path class="cls-3" d="m45.46,49.5s1,10.65-3.54,14.12l-9.98-.19s-3.02-6.21-2.49-11.05l16-2.88Z"/>
      <path class="cls-4" d="m30.55,41.12s-2.51-.51-3.32-2.04c0,0-1.68-1.01,3.05-4.7,0,0,7.61-5.32,14.68-.18,0,0,2.47,1.64,2.61,4.31,0,0-1.51,2.07-3.75,2.34s-13.27.27-13.27.27Z"/>
      <path class="cls-3" d="m52.07,65.25c-7.9,0-11.29-2.18-11.29-2.18l-3.29-.37-3.29.37s-3.39,2.19-11.29,2.18c0,0-5.62-.16-3.26,12.74h35.67c2.36-12.91-3.26-12.74-3.26-12.74Z"/>
      <path class="cls-4" d="m47.57,69.52s1.94,5.43-1.63,8.48l-18.14.04c-2.4-4.76-.26-8.57-.26-8.57,0,0,8.5-6.06,20.03.04Z"/>
      <path class="cls-8" d="m41.82,56.52s-2.35,4.86-.55,7.63c0,0-4.59,8.35-7.93,0,0,0,1.19-4.06-.05-7.71l8.53.08Z"/>
      <path class="cls-8" d="m37.5,40c-4.42,0-8,3.58-8,8-.26,8.87,8,12.47,8,12.47,0,0,8.26-3.6,8-12.47,0-4.42-3.58-8-8-8Z"/>
      <path class="cls-5" d="m29.49,64.66s1.21-1.67,3.79-1.23c0,0,2.24,2.7,3.1,4.68,0,0,1.15,2.2-1.15,2.17,0,0-4.54-2.04-5.74-5.61Z"/>
      <path class="cls-5" d="m40.79,63.07s3.03-.5,3.7,1.37c0,0-1.18,6.38-7.97,5.91,0,0-3.92-.51,1.7-4.12,0,0,.86-.61,2.57-3.16Z"/>
      <path class="cls-4" d="m41.85,66.05s-1.38.92,1.31,3.28c0,0,9.27,1.48,11.56-4.23,0,0,.1-2.83-3.53-2l-9.33,2.94Z"/>
      <path class="cls-1" d="m43.24,62s-2.45,1.9-1.39,4.05c0,0,5.62,2.49,9.94-.94,0,0,.81-1.79-1.3-2.24,0,0-3.58.59-7.25-.87Z"/>
      <path class="cls-4" d="m32.15,66.05s1.38.92-1.31,3.28c0,0-9.27,1.48-11.56-4.23,0,0-.1-2.83,3.53-2l9.33,2.94Z"/>
      <path class="cls-1" d="m30.76,62s2.45,1.9,1.39,4.05c0,0-5.62,2.49-9.94-.94,0,0-.81-1.79,1.3-2.24,0,0,3.58.59,7.25-.87Z"/>
      <path class="cls-3" d="m46.46,44.99s-1.27-1.55-1.9-.76l-.12-.99-13.95-.53-.25,1.35c-.66-.33-1.69.94-1.69.94-.55,2.66-1.45,4.51-1.45,4.51,0,4.72,2.54,8.47,2.54,8.47,1.52-1.85-.17-5.59-.17-5.59,1.21-1.57,1.52-3.35,1.54-4.7,2.61-.58,7.89-1.93,9.79-3.69,0,0-.37,2.21,3.21,3.65.01,1.35.31,3.15,1.54,4.74,0,0-1.85,3.74-.33,5.59,0,0,3.64-4.97,2.37-8.47,0,0-1.5-1.85-1.12-4.51Z"/>
      <path class="cls-6" d="m37.05,70.35s-.24,4.62,0,7.65"/>
      <path class="cls-4" d="m44.45,43.24h-13.89c-2.87.61-3.46,3.23-3.46,3.23,0,0,10.22-3.23,20.34,0,0,0,.05-3.23-2.99-3.23Z"/>
      <path class="cls-2" d="m29.61,43.24s-.51-1.41,0-2.12c0,0,7.03-2.33,15.09-.27,0,0,2.14,1.3.62,2.4h-15.71Z"/>
      <polygon class="cls-1" points="35.6 39.08 39.26 39.08 39.4 41.62 37.45 43.24 35.6 41.62 35.6 39.08"/>
      <path class="cls-3" d="m30.24,55.47s1.93,2.5-.93,5c0,0-2.28-1.58-.84-5h1.77Z"/>
      <path class="cls-3" d="m44.68,55.33h1.9s2.09,1.64-.43,5.28c0,0-2.8-1.87-1.47-5.28Z"/>
      <polygon class="cls-1" points="35.16 67.85 35.2 70.35 36.91 72.15 38.63 70.54 38.84 67.87 37.13 66.23 35.16 67.85"/>
    </g>
    <ellipse class="cls-13" cx="34.5" cy="52" rx=".75" ry="1.25"/>
    <ellipse class="cls-13" cx="40.5" cy="52" rx=".75" ry="1.25"/>
    <line class="cls-9" x1="34.5" y1="52" x2="33.17" y2="51.64"/>
    <line class="cls-9" x1="40.5" y1="52" x2="41.83" y2="51.64"/>
    <path class="cls-7" d="m37.5,52h1.02s-.05,2.31,2.2,2.22c0,0,2.42.26,2.31-2.22h1.91"/>
    <path class="cls-7" d="m37.5,52h-1.02s.05,2.31-2.2,2.22c0,0-2.42.26-2.31-2.22h-1.91"/>
    <path class="cls-10" d="m39.4,56.22c-2.14-1.36-3.8,0-3.8,0,0,0,.22.6.35.92h2.98l.46-.92Z"/>
    <path class="cls-7" d="m32.05,49.76s2.44,1.27,3.91,1.15"/>
    <path class="cls-7" d="m42.95,49.76s-2.09,1.28-3.56,1.16"/>
  </g>
</svg>