<?xml version="1.0" encoding="UTF-8"?>
<svg xmlns="http://www.w3.org/2000/svg" xmlns:xlink="http://www.w3.org/1999/xlink" viewBox="0 0 75 110">
  <defs>
    <style>
      .cls-1 {
        fill: #404040;
      }

      .cls-1, .cls-2, .cls-3, .cls-4, .cls-5, .cls-6, .cls-7, .cls-8, .cls-9 {
        stroke: #0d0d0d;
        stroke-linecap: round;
        stroke-linejoin: round;
      }

      .cls-2 {
        fill: gray;
      }

      .cls-3 {
        fill: #bfbfbf;
      }

      .cls-4 {
        fill: #e5e5e5;
      }

      .cls-5, .cls-10 {
        fill: #ff40b2;
      }

      .cls-6 {
        fill: url(#linear-gradient-2);
      }

      .cls-7 {
        fill: none;
      }

      .cls-7, .cls-9 {
        stroke-width: .75px;
      }

      .cls-8 {
        fill: url(#linear-gradient);
      }

      .cls-9 {
        fill: #f2f2f2;
      }

      .cls-11 {
        fill: #0d0d0d;
      }

      .cls-11, .cls-12, .cls-10 {
        stroke-width: 0px;
      }

      .cls-12 {
        fill: #fff;
      }
    </style>
    <linearGradient id="linear-gradient" x1="37.5" y1="37.7" x2="37.5" y2="63.35" gradientUnits="userSpaceOnUse">
      <stop offset=".7" stop-color="#404040"/>
      <stop offset="1" stop-color="#ff40b2"/>
    </linearGradient>
    <linearGradient id="linear-gradient-2" x1="48.06" y1="28.91" x2="44.48" y2="37.05" gradientUnits="userSpaceOnUse">
      <stop offset="0" stop-color="#ff40b2"/>
      <stop offset="1" stop-color="#ff40b2"/>
    </linearGradient>
  </defs>
  <g id="Base">
    <rect class="cls-10" width="75" height="110" rx="5.02" ry="5.02"/>
    <rect class="cls-12" x="5" y="5" width="65" height="100" rx="4.46" ry="4.46"/>
    <rect class="cls-10" x="9.46" y="9.46" width="7.07" height="7.07" transform="translate(-5.38 13) rotate(-45)"/>
    <rect class="cls-10" x="58.46" y="93.46" width="7.07" height="7.07" transform="translate(-50.43 72.25) rotate(-45)"/>
  </g>
  <g id="People">
    <g>
      <path class="cls-8" d="m57.31,54.89c-2.78-.81-3.17-7.98-3.17-7.98-.33-5.7-4.85-8.82-4.85-8.82l-11.8-.39-11.8.39s-4.52,3.12-4.85,8.82c0,0-.38,7.17-3.17,7.98,0,0,2.35,1.79,4.55,0,0,0-.65,6.44-2.44,7.86,0,0,2.76,1.74,4.8-.74l12.9.72,12.9-.72c2.04,2.48,4.8.74,4.8.74-1.79-1.42-2.44-7.86-2.44-7.86,2.2,1.79,4.55,0,4.55,0Z"/>
      <path class="cls-3" d="m26.27,61.41s6.79-2.57,11.23,1.59c0,0,4.82-3.81,11.23-1.59,0,0-5.44,7.48-11.12,8.18,0,0-10.65-2.26-11.34-8.18Z"/>
      <path class="cls-3" d="m56.99,74c1.09-10.07-6.64-8.89-6.64-8.89-5.4-2.43-9.61-2.09-9.61-2.09l-3.24-.02-3.24.02s-4.22-.35-9.61,2.09c0,0-7.73-1.18-6.64,8.89,0,0-.65,3.66-.11,7.36h39.19c.54-3.69-.11-7.36-.11-7.36Z"/>
      <path class="cls-5" d="m50.4,65.1c-5.93-2.49-12.9-2.1-12.9-2.1,0,0-7.53-.38-12.9,2.1,0,0,3.1-.27,4.13,4.5,0,0-6.31,6.67-1.38,11.75h20.29c4.93-5.08-1.38-11.75-1.38-11.75,1.03-4.77,4.13-4.5,4.13-4.5Z"/>
      <path class="cls-2" d="m28.73,69.6s4.54-1.59,8.53,1.75c0,0,4.68-2.84,9.01-1.75,0,0,.71-4.06,4.13-4.5,0,0-4.8-2.09-9.66-2.09h-6.48s-5.18.12-9.66,2.09c0,0,2.85.4,4.13,4.5Z"/>
      <path class="cls-3" d="m41.94,56.42c-3.82-1.57-4.44,1.9-4.44,1.9,0,0-.63-3.48-4.44-1.9,0,0,2.19,7.23,0,10.73,0,0,.69,2.83,4.55,2.44,3.86.39,4.33-2.44,4.33-2.44-2.19-3.5,0-10.73,0-10.73Z"/>
      <path class="cls-3" d="m37.5,37.96c-11.5-.39-8.76,12.84-8.76,12.84.5,6.65,8.76,10.55,8.76,10.55,0,0,8.25-3.89,8.76-10.55,0,0,2.75-13.23-8.76-12.84Z"/>
      <path class="cls-4" d="m37.26,71.35s-1.54-2.33,6.15-5.77c0,0,2.56-.84,5.32-4.17,0,0,2.99.19,1.7,3.52,0,0-2.01,4.2-4.13,4.5,0,0-6.51.3-9.03,1.93Z"/>
      <path class="cls-1" d="m46.12,28.65s4.19-.07,4.29,10.53c0,0-6.08.52-7.84-5.68,0,0,3.89-.24,3.55-4.85Z"/>
      <path class="cls-4" d="m37.26,71.35s1.04-2.66-5.67-5.77c0,0-2.56-.84-5.32-4.17,0,0-2.99.19-1.7,3.52,0,0,2.01,4.2,4.13,4.5,0,0,6.03.3,8.56,1.93Z"/>
      <path class="cls-1" d="m28.88,28.65s-6.31,1.5-2.61,11.44c0,0,1.89-5.11,6.16-6.59,0,0-4.64-.08-3.55-4.85Z"/>
      <path class="cls-6" d="m42.09,36.45s-.66-2.34,1.54-4.21c0,0,2.28-1.3,2.49-3.58,0,0,2.8.73,2.6,5.95,0,0,.29,2.14-2.6,3.76l-4.02-1.9Z"/>
      <path class="cls-5" d="m32.91,36.45s.66-2.34-1.54-4.21c0,0-2.28-1.3-2.49-3.58,0,0-2.8.73-2.6,5.95,0,0-.29,2.14,2.6,3.76l4.02-1.9Z"/>
      <path class="cls-1" d="m38.53,45.54c-3.13,3.34-7.33,3.1-7.33,3.1,0-1.14,1.86-3.1,1.86-3.1-4.08,2.52-6.78,3.1-6.78,3.1-.69-5.54,2.5-7.98,2.5-7.98-2.36.33-3.66.57-3.66.57.86-3.5,7.32-7.73,7.32-7.73,0,0,4.82-3.42,10.13,0,0,0,4.45,3.76,8.75,5.85,0,0,.61,3.61-4.77,1.66,0,0,3.49,2.82,4.21,6.56,0,0-4.57,1.22-7.42-2.61,0,0-1.38,2.36-4.24,3.18,0,0,.25-3.49-.57-2.61Z"/>
    </g>
    <ellipse class="cls-11" cx="33" cy="51.35" rx="1" ry="1.75"/>
    <ellipse class="cls-11" cx="42" cy="51.35" rx="1" ry="1.75"/>
    <path class="cls-7" d="m40.04,50.53s2.53-.87,3.92-2.57"/>
    <path class="cls-7" d="m34.96,50.53s-2.96-1.28-3.92-2.57"/>
    <path class="cls-9" d="m39.93,56.11c-2.33-1.49-4.85.14-4.85.14,0,0,.7-.32,1.73.98,0,0,.88-.05,1.42,0,0,0,2.92-.34,1.7-1.12Z"/>
  </g>
</svg>