<?xml version="1.0" encoding="UTF-8"?>
<svg xmlns="http://www.w3.org/2000/svg" viewBox="0 0 75 110">
  <defs>
    <style>
      .cls-1 {
        fill: gray;
      }

      .cls-1, .cls-2, .cls-3, .cls-4, .cls-5, .cls-6 {
        stroke: #0d0d0d;
        stroke-linecap: round;
        stroke-linejoin: round;
      }

      .cls-2 {
        fill: #bfbfbf;
      }

      .cls-3, .cls-7 {
        fill: #f255e3;
      }

      .cls-4, .cls-8 {
        fill: #fff;
      }

      .cls-5, .cls-6 {
        fill: none;
      }

      .cls-6 {
        stroke-width: .75px;
      }

      .cls-9 {
        fill: #0d0d0d;
      }

      .cls-9, .cls-8, .cls-7 {
        stroke-width: 0px;
      }
    </style>
  </defs>
  <g id="Base">
    <rect class="cls-7" x="0" width="75" height="110" rx="5.02" ry="5.02"/>
    <rect class="cls-8" x="5" y="5" width="65" height="100" rx="4.46" ry="4.46"/>
    <rect class="cls-7" x="9.46" y="9.46" width="7.07" height="7.07" transform="translate(-5.38 13) rotate(-45)"/>
    <rect class="cls-7" x="58.46" y="93.46" width="7.07" height="7.07" transform="translate(-50.43 72.25) rotate(-45)"/>
  </g>
  <g id="People">
    <g>
      <path class="cls-1" d="m57.35,71.38c-.91-8.06-5.56-8.85-5.56-8.85-4.95.47-9.57-1.22-9.57-1.22h-9.45s-4.62,1.68-9.57,1.22c0,0-4.64.79-5.56,8.85,0,0-1.04,5.29,0,9.23h39.7c1.04-3.94,0-9.23,0-9.23Z"/>
      <path class="cls-4" d="m17.65,80.61s-1.09-3.4-.19-6.82h39.91s1.1,2.81-.02,6.82H17.65Z"/>
      <path class="cls-2" d="m27,73.39s-6.21-1.05-9.52-.61c0,0-1.15-.06-.7,1.57,0,0-.67,1.06-.11,1.47,0,0,6.48,1.79,10.01,0l.31-2.42Z"/>
      <path class="cls-2" d="m48,73.39s6.21-1.05,9.52-.61c0,0,1.15-.06.7,1.57,0,0,.67,1.06.11,1.47,0,0-6.48,1.79-10.01,0l-.31-2.42Z"/>
      <path class="cls-3" d="m47.14,69.61c-1.98-3.28-1.9-7.49-1.9-7.49-1.81-1.11-3.02-.82-3.02-.82l-4.72.02-4.72-.02s-1.21-.28-3.02.82c0,0,.08,4.21-1.9,7.49,0,0-2.39,7.32-.61,11h20.49c1.78-3.68-.61-11-.61-11Z"/>
      <path class="cls-3" d="m27.57,50.61s.8,4.2,2.18,5.75c0,0,.72.1,2.56-1.01h10.36s.79.93,1.75,1.01c0,0,3.69-3.22,2.83-6.68l-19.69.93Z"/>
      <path class="cls-1" d="m43.91,65.61s.98,4.13.27,5.33c0,0,.08,3.84-6.51,3.77,0,0-6.04.06-6.2-3.64,0,0-.26-1.87-.38-5.45h12.81Z"/>
      <path class="cls-4" d="m46.97,43.94s3.38-3.5,3.29.81c0,0-2.05,9.77-3.76,4.07l.47-4.88Z"/>
      <path class="cls-4" d="m28.03,43.94s-3.38-3.5-3.29.81c0,0,2.05,9.77,3.76,4.07l-.47-4.88Z"/>
      <path class="cls-4" d="m42.68,55.35l-5.18-1.08v-.45l-5.18,1.53s1.99,7.69-1.23,10.26c0,0,1.48,2.63,6.41,2.38h0c4.93.25,6.41-2.38,6.41-2.38-3.22-2.57-1.23-10.26-1.23-10.26Z"/>
      <path class="cls-4" d="m37.5,35.86s-10.53-.76-9.9,10.75c0,0,.39,9,9.9,12,9.5-3,9.9-12,9.9-12,.63-11.51-9.9-10.75-9.9-10.75Z"/>
      <path class="cls-1" d="m42.22,61.29s-2.87,2.42-4.72,6.67c0,0,3.25-1.94,3.8,1.64,0,0,4.37-5.13.93-8.31Z"/>
      <path class="cls-1" d="m32.78,61.29s2.87,2.42,4.72,6.67c0,0-3.25-1.94-3.8,1.64,0,0-4.37-5.13-.93-8.31Z"/>
      <line class="cls-5" x1="37.5" y1="67.96" x2="37.5" y2="71.98"/>
      <circle class="cls-4" cx="45.84" cy="71.36" r="1.42"/>
      <circle class="cls-4" cx="29.31" cy="70.93" r="1.42"/>
      <path class="cls-3" d="m26.59,42.84s-1.8-4.65,1.91-8.64c0,0,.85,1.55,3.46-1.55,0,0,3.5-2.52,6.27-3.26,0,0-.73,1.87,1.79,1.06,0,0,2.2-.9,5.82.33,0,0-.52,1.38.66,1.95,0,0,2.92,2.12,3.76,4.89,0,0-2.51.81-1.85,1.95,0,0,.02,2.32-.03,3.28,0,0-.93,1.75-.95,2.75,0,0-1.33-.85-1.58-3.58,0,0-5.41-3.01-8.34,0,0,0-3.37-3.01-8.19-.49,0,0,.11,2.27-1.72,3.5,0,0,.18-2.02-.99-2.19Z"/>
      <line class="cls-6" x1="48" y1="49.35" x2="48.98" y2="51.14"/>
      <line class="cls-6" x1="27" y1="49.35" x2="25.69" y2="51.14"/>
      <line class="cls-6" x1="26.59" y1="47.88" x2="24.74" y2="49.35"/>
    </g>
    <ellipse class="cls-9" cx="33" cy="48.61" rx="1" ry="2"/>
    <ellipse class="cls-9" cx="42" cy="48.61" rx="1" ry="2"/>
    <path class="cls-6" d="m30.59,45.61s2.41,1.08,4.81.51"/>
    <path class="cls-6" d="m43.91,45.61s-2.11,1.24-4.52.68"/>
    <line class="cls-6" x1="43.27" y1="44.86" x2="43.81" y2="46.35"/>
    <path class="cls-6" d="m35.13,53.44s2.8-1.76,4.7-.24"/>
    <line class="cls-6" x1="42" y1="48.61" x2="43.54" y2="49.67"/>
    <line class="cls-6" x1="33" y1="48.61" x2="31.46" y2="49.67"/>
  </g>
</svg>