<?xml version="1.0" encoding="UTF-8"?>
<svg xmlns="http://www.w3.org/2000/svg" viewBox="0 0 75 110">
  <defs>
    <style>
      .cls-1 {
        fill: gray;
      }

      .cls-1, .cls-2, .cls-3, .cls-4, .cls-5, .cls-6 {
        stroke: #0d0d0d;
        stroke-linecap: round;
        stroke-linejoin: round;
      }

      .cls-2 {
        fill: #bfbfbf;
      }

      .cls-3, .cls-7 {
        fill: #e5e5e5;
      }

      .cls-4, .cls-8 {
        fill: #e5d32e;
      }

      .cls-5, .cls-9 {
        fill: #fff;
      }

      .cls-6 {
        fill: none;
        stroke-width: .75px;
      }

      .cls-9, .cls-8, .cls-7 {
        stroke-width: 0px;
      }
    </style>
  </defs>
  <g id="Base">
    <rect class="cls-8" x="0" width="75" height="110" rx="5.02" ry="5.02"/>
    <rect class="cls-9" x="5" y="5" width="65" height="100" rx="4.46" ry="4.46"/>
    <path class="cls-8" d="m17.99,10.58s0-.05,0-.08c0-1.38-1.12-2.5-2.49-2.5-1.14,0-2.11.77-2.4,1.83-.03.1-.15.1-.18,0-.29-1.05-1.26-1.83-2.4-1.83-1.38,0-2.49,1.12-2.49,2.5-.3,3.17,2.49,4.65,2.49,4.65,1.35.75,2.42,2.72,2.48,2.83v.02s0,0,0,0c0,0,0,0,0,0v-.02c.06-.11,1.13-2.08,2.48-2.83,0,0,2.74-1.46,2.5-4.57Z"/>
    <path class="cls-8" d="m66.99,99.42s0,.05,0,.08c0,1.38-1.12,2.5-2.49,2.5-1.14,0-2.11-.77-2.4-1.83-.03-.1-.15-.1-.18,0-.29,1.05-1.26,1.83-2.4,1.83-1.38,0-2.49-1.12-2.49-2.5-.3-3.17,2.49-4.65,2.49-4.65,1.35-.75,2.42-2.72,2.48-2.83v-.02s0,0,0,0c0,0,0,0,0,0v.02c.06.11,1.13,2.08,2.48,2.83,0,0,2.74,1.46,2.5,4.57Z"/>
  </g>
  <g id="People">
    <g>
      <path class="cls-4" d="m33.84,33.56s1.35-4.02-3.63-2.88c0,0-2.44.35-3.85,3.45,0,0-1.93,4.82,3.15,3.19,0,0,3.54-2.04,4.33-3.76Z"/>
      <path class="cls-4" d="m41.16,33.56s-1.35-4.02,3.63-2.88c0,0,2.44.35,3.85,3.45,0,0,1.93,4.82-3.15,3.19,0,0-3.54-2.04-4.33-3.76Z"/>
      <g>
        <path class="cls-4" d="m37.5,60.31l8.63.92c2.08-2.84.91-6.51.91-6.51-.96-2.61.33-11.2.33-11.2,2.22-11.69-9.87-9.24-9.87-9.24"/>
        <path class="cls-4" d="m37.5,34.28s-12.09-2.45-9.87,9.24c0,0,1.3,8.59.33,11.2,0,0-1.17,3.67.91,6.51l8.63-.92"/>
      </g>
      <path class="cls-1" d="m26.81,60.07s4.94-2.62,10.69.37c0,0,6.73-3.84,10.69-.37l-10.69,2.7-10.69-2.7Z"/>
      <path class="cls-3" d="m29.45,44.41s-1.13-.22-2.92-1.45c0,0-.98,5.62,2.97,6.6l-.05-5.15Z"/>
      <rect class="cls-2" x="31.7" y="63.73" width="11.6" height="15.83"/>
      <path class="cls-3" d="m45.55,44.41s1.13-.22,2.92-1.45c0,0,.98,5.62-2.97,6.6l.05-5.15Z"/>
      <path class="cls-3" d="m41.33,56.31l-3.83,1.19-3.83-1.19c1.72,5.36-.68,7.32-.68,7.32,1.69,1.35,4.51.85,4.51.85,0,0,2.82.51,4.51-.85,0,0-2.4-1.96-.68-7.32Z"/>
      <path class="cls-3" d="m47.04,61.51s2.62,2.59,6.15,4.55c0,0,3.53,2.24,2.06,5.85,0,0-5.55,3.34-7.88,6.05,0,0-2.86,2.44-7.18,1.3,0,0-1.39-10.83-2.69-13.2,0,0,1.82-5.69,9.54-4.55Z"/>
      <path class="cls-4" d="m37.5,67.88s.6,3.47,2.91,5.1c0,0,1.81,2.44,1.33,3.79,0,0,2.64-.2,2.99-1.59,0,0,.15-1.91-1.95-3.89,0,0-3.25-1.11-3.25-3.72l-2.03.31Z"/>
      <polygon class="cls-1" points="27.63 43.52 27.4 41.9 47.65 41.9 47.37 43.52 37.74 47.23 27.63 43.52"/>
      <path class="cls-3" d="m27.96,61.51s-2.62,2.59-6.15,4.55c0,0-3.53,2.24-2.06,5.85,0,0,5.55,3.34,7.88,6.05,0,0,2.86,2.44,7.18,1.3,0,0,1.39-10.83,2.69-13.2,0,0-1.82-5.69-9.54-4.55Z"/>
      <path class="cls-4" d="m37.5,67.88s-.6,3.47-2.91,5.1c0,0-1.81,2.44-1.33,3.79,0,0-2.64-.2-2.99-1.59,0,0-.15-1.91,1.95-3.89,0,0,3.25-1.11,3.25-3.72l2.03.31Z"/>
      <path class="cls-5" d="m37.31,35.73c-8.72-.36-7.83,11.36-7.83,11.36-.03,10.47,8.03,10.47,8.03,10.47,0,0,8.06,0,8.03-10.47,0,0,.49-11.73-8.23-11.36Z"/>
      <path class="cls-3" d="m48.19,60.07c-5.69.16-10.69,2.7-10.69,2.7,0,0-5-2.54-10.69-2.7,0,0-3.7.89.72,3.74,0,0,7.46.38,9.97,2.75,2.51-2.38,9.97-2.75,9.97-2.75,4.42-2.85.72-3.74.72-3.74Z"/>
      <path class="cls-4" d="m39.53,65.3s1.2-1.79,2.49-1.68c0,0,1.43,4.43.37,5.44,0,0-2.13.13-2.86-1.14s0-2.62,0-2.62Z"/>
      <path class="cls-4" d="m35.47,65.3s-.96-.96-2.49-1.68c0,0-1.15,3.62.01,5.44,0,0,1.76-.31,2.47-1.52v-2.24Z"/>
      <path class="cls-4" d="m35.47,65.3s2.74-.94,4.05,0v2.62s-2.66.92-4.05-.38v-2.24Z"/>
    </g>
    <ellipse class="cls-7" cx="32.5" cy="52.06" rx="1.5" ry="1"/>
    <ellipse class="cls-7" cx="42.5" cy="52.06" rx="1.5" ry="1"/>
    <polygon class="cls-6" points="38.95 53.06 37.5 51.56 36.05 53.06 38.95 53.06"/>
    <path class="cls-6" d="m32,49.27s.94,1.33,2,0"/>
    <path class="cls-6" d="m41,49.27s.94,1.33,2,0"/>
    <path class="cls-6" d="m32,47.76s1.89.47,2.17-.64"/>
    <path class="cls-6" d="m43.13,47.86s-1.91.65-2.36-.74"/>
  </g>
</svg>