<?xml version="1.0" encoding="UTF-8"?>
<svg xmlns="http://www.w3.org/2000/svg" viewBox="0 0 75 110">
  <defs>
    <style>
      .cls-1, .cls-2, .cls-3, .cls-4, .cls-5, .cls-6, .cls-7 {
        stroke: #0d0d0d;
        stroke-linecap: round;
        stroke-linejoin: round;
      }

      .cls-1, .cls-8 {
        fill: #45e5e5;
      }

      .cls-2 {
        fill: #bfbfbf;
      }

      .cls-3 {
        fill: #e5e5e5;
      }

      .cls-4, .cls-9, .cls-7 {
        fill: #fff;
      }

      .cls-5, .cls-6 {
        fill: none;
      }

      .cls-6, .cls-7 {
        stroke-width: .75px;
      }

      .cls-8, .cls-10, .cls-9 {
        stroke-width: 0px;
      }

      .cls-10 {
        fill: #0d0d0d;
      }
    </style>
  </defs>
  <g id="Base">
    <rect class="cls-8" width="75" height="110" rx="5.02" ry="5.02"/>
    <rect class="cls-9" x="5" y="5" width="65" height="100" rx="4.46" ry="4.46"/>
    <path class="cls-8" d="m15.49,10.14c-1.35-.56-2.42-2.04-2.48-2.12h0s0,0,0,0c0,0,0,0,0,0h0c-.06.1-1.13,1.57-2.48,2.14,0,0-2.79,1.11-2.49,3.49,0,1.04,1.12,1.88,2.49,1.88.98,0,1.82-.42,2.23-1.04-.64,1.94-2.24,3.54-2.24,3.54h4.99s-1.62-1.62-2.25-3.57c.4.64,1.26,1.07,2.25,1.07,1.38,0,2.49-.84,2.49-1.88,0-.02,0-.04,0-.06.24-2.33-2.5-3.43-2.5-3.43Z"/>
    <path class="cls-8" d="m64.49,99.86c-1.35.56-2.42,2.04-2.48,2.12h0s0,0,0,0c0,0,0,0,0,0h0c-.06-.1-1.13-1.57-2.48-2.14,0,0-2.79-1.11-2.49-3.49,0-1.04,1.12-1.88,2.49-1.88.98,0,1.82.42,2.23,1.04-.64-1.94-2.24-3.54-2.24-3.54h4.99s-1.62,1.62-2.25,3.57c.4-.64,1.26-1.07,2.25-1.07,1.38,0,2.49.84,2.49,1.88,0,.02,0,.04,0,.06.24,2.33-2.5,3.43-2.5,3.43Z"/>
  </g>
  <g id="People">
    <g>
      <path class="cls-4" d="m54.34,73.86c.58-9.1-5.55-8.9-5.55-8.9-5.69,1.36-8.5-.33-8.5-.33h-5.59s-3.17,1.77-8.5.33c0,0-6.13-.21-5.55,8.9,0,0-1.01,3.62-.04,7.74h33.76c1.11-3.79-.04-7.74-.04-7.74Z"/>
      <path class="cls-1" d="m22.65,66.49s3.33-.06,4.39,6.2c0,0,11.5,2.97,19.64-.32,0,0-1.4-4.86-5.41-6.3l-13.44-.75s-2.61-1.69-5.19,1.16Z"/>
      <path class="cls-4" d="m41.92,56.98h-8.83s2.9,5.75,0,10.31l4.42,2.31,4.42-2.31c-2.89-4.56,0-10.31,0-10.31Z"/>
      <path class="cls-3" d="m34.22,72.05s-1.37-3.67-.13-7.15c0,0-3,1.3-6.25.42,0,0,2.1,4,.45,7.04,0,0,3.36-.66,5.93-.31Z"/>
      <path class="cls-4" d="m45.34,47.26s.27-1.84,2.01-2.82c0,0,2.53,6.32-2.85,9.66,0,0-.09-3.92.83-6.85Z"/>
      <path class="cls-4" d="m29.66,47.26s-.27-1.84-2.01-2.82c0,0-2.53,6.32,2.85,9.66,0,0,.09-3.92-.83-6.85Z"/>
      <path class="cls-3" d="m40.99,64.65s1.14,2.95-.69,7.4h4.6v-6.56s-.89-.84-3.9-.84Z"/>
      <path class="cls-4" d="m44.55,43.44c-.96-3.98-7.05-4.61-7.05-4.61,0,0-6.08.62-7.05,4.61,0,0-3.15,7.98,2.63,14.91,0,0,1.46,1.71,4.42,3.26,2.96-1.55,4.42-3.26,4.42-3.26,5.78-6.92,2.63-14.91,2.63-14.91Z"/>
      <path class="cls-2" d="m26.95,81.6s-.85-5.02.1-8.91c0,0,3.71-1.43,10.31,0l.14,8.91h-10.55Z"/>
      <path class="cls-2" d="m48.05,81.6s.85-5.02-.1-8.91c0,0-3.71-1.43-10.31,0l-.14,8.91h10.55Z"/>
      <path class="cls-2" d="m42.95,64.64s3-1.77,7.32-1.34c0,0,5.46-.55,5.21,8.76,0,0-5.13-4.1-10.75,2.09l-2.81-1.03s3.24-4.85,1.03-8.48Z"/>
      <line class="cls-5" x1="46.22" y1="51.5" x2="46.69" y2="53.29"/>
      <line class="cls-5" x1="28.78" y1="51.18" x2="27.84" y2="53.7"/>
      <path class="cls-1" d="m29.66,47.26s-2.25-5.39.55-9.63c0,0,.03,2.17,1.03,3.26,0,0,1.82-3.26,0-8.47,0,0,1.84-1.52,4.26,4.45,0,0-.71-3.69.19-8.47,0,0,1.46,5.1,4.39,8.04,0,0,1.53-2.17,1.03-5,0,0,2.41,2.57,1.55,8.07,0,0,1,2.03,2.19-2.53,0,0,2.94,3.83.49,10.28,0,0-3.42-3.16-8.18.09,0,0-4.81-2.91-7.49-.09Z"/>
    </g>
    <ellipse class="cls-10" cx="41" cy="51.85" rx="1" ry="1.75"/>
    <ellipse class="cls-10" cx="34" cy="51.85" rx="1" ry="1.75"/>
    <path class="cls-6" d="m32.45,48s2.19,2,3.6,2.02"/>
    <path class="cls-6" d="m42.39,48s-2.02,2-3.44,2.02"/>
    <path class="cls-7" d="m39.86,55.68s-3.2-.65-4.73,1.91c0,0,2.91-1.25,4.09-.68l.64-1.23Z"/>
  </g>
</svg>