<?xml version="1.0" encoding="UTF-8"?>
<svg xmlns="http://www.w3.org/2000/svg" viewBox="0 0 75 110">
  <defs>
    <style>
      .cls-1 {
        fill: #404040;
      }

      .cls-1, .cls-2, .cls-3, .cls-4, .cls-5, .cls-6 {
        stroke: #0d0d0d;
        stroke-linecap: round;
        stroke-linejoin: round;
      }

      .cls-2, .cls-7 {
        fill: gray;
      }

      .cls-3, .cls-8 {
        fill: #39e5b2;
      }

      .cls-4 {
        fill: #bfbfbf;
      }

      .cls-5, .cls-6 {
        fill: none;
      }

      .cls-6 {
        stroke-width: .75px;
      }

      .cls-7, .cls-8, .cls-9, .cls-10 {
        stroke-width: 0px;
      }

      .cls-9 {
        fill: #0d0d0d;
      }

      .cls-10 {
        fill: #fff;
      }
    </style>
  </defs>
  <g id="Base">
    <rect class="cls-8" x="0" width="75" height="110" rx="5.02" ry="5.02"/>
    <rect class="cls-10" x="5" y="5" width="65" height="100" rx="4.46" ry="4.46"/>
    <path class="cls-8" d="m17.99,10.58s0-.05,0-.08c0-1.38-1.12-2.5-2.49-2.5-1.14,0-2.11.77-2.4,1.83-.03.1-.15.1-.18,0-.29-1.05-1.26-1.83-2.4-1.83-1.38,0-2.49,1.12-2.49,2.5-.3,3.17,2.49,4.65,2.49,4.65,1.35.75,2.42,2.72,2.48,2.83v.02s0,0,0,0c0,0,0,0,0,0v-.02c.06-.11,1.13-2.08,2.48-2.83,0,0,2.74-1.46,2.5-4.57Z"/>
    <path class="cls-8" d="m66.99,99.42s0,.05,0,.08c0,1.38-1.12,2.5-2.49,2.5-1.14,0-2.11-.77-2.4-1.83-.03-.1-.15-.1-.18,0-.29,1.05-1.26,1.83-2.4,1.83-1.38,0-2.49-1.12-2.49-2.5-.3-3.17,2.49-4.65,2.49-4.65,1.35-.75,2.42-2.72,2.48-2.83v-.02s0,0,0,0c0,0,0,0,0,0v.02c.06.11,1.13,2.08,2.48,2.83,0,0,2.74,1.46,2.5,4.57Z"/>
  </g>
  <g id="People">
    <g>
      <path class="cls-3" d="m37.52,40.45c-2.26-3.95-4.42-9.55-4.42-9.55-1.8,1.92-2.85,9.7-2.85,9.7h14.49s-1.05-7.79-2.85-9.7c0,0-2.12,5.61-4.38,9.55"/>
      <path class="cls-1" d="m46,48.05s1,3.52,0,4.66l-1.94-1.76s.7,1.77.57,2.66l-2.13-.53s.35-5.2,3.5-5.02Z"/>
      <path class="cls-1" d="m29,48.05s-1,3.52,0,4.66l1.94-1.76s-.7,1.77-.57,2.66l2.13-.53s-.35-5.2-3.5-5.02Z"/>
      <path class="cls-4" d="m29.76,44.96s-3.13-3.71-2.83,0c0,0,.99,5.73,3.02,3.37l-.19-3.37Z"/>
      <path class="cls-4" d="m45.15,44.96s3.13-3.71,2.83,0c0,0-.99,5.73-3.02,3.37l.19-3.37Z"/>
      <path class="cls-4" d="m49.5,58.32s6.23,2.64,5.8,9.33c0,0,1.78,6.52.02,11.45h-7.52s-5.01-15.67,1.7-20.78Z"/>
      <path class="cls-4" d="m25.5,58.32s-6.23,2.64-5.8,9.33c0,0-1.78,6.52-.02,11.45h7.52s5.01-15.67-1.7-20.78Z"/>
      <path class="cls-3" d="m48.59,59.76c-6.43-4.81-11.09,3.98-11.09,3.98,0,0-4.66-8.79-11.09-3.98,0,0,.11,8.01.65,10.59,0,0-.54,2.97-.65,8.75h22.18c-.11-5.78-.65-8.75-.65-8.75.54-2.58.65-10.59.65-10.59Z"/>
      <path class="cls-2" d="m48.73,56.08s-4.31-2.2-11.23,0c-6.93-2.2-11.23,0-11.23,0-4.15,2.69,1.31,4.24,1.31,4.24,3.53.83,9.91,3.43,9.91,3.43,0,0,6.42-2.59,9.95-3.43,0,0,5.46-1.55,1.31-4.24Z"/>
      <path class="cls-5" d="m39.94,64.41s.67.64.66,2.93"/>
      <path class="cls-5" d="m35.57,64.41s-.78,1.68-.43,3.24"/>
      <path class="cls-2" d="m42.69,71.82h-10.39s.95,4.87-1.32,7.28h13.04c-2.27-2.41-1.32-7.28-1.32-7.28Z"/>
      <path class="cls-4" d="m34.14,54.51s.34,2.97-1.86,5.25c0,0,4.95,5.35,9.91-.81,0,0-2.65-1.24-1.39-4.41l-6.66-.03Z"/>
      <path class="cls-4" d="m45.5,44.1c0-4.42-3.58-8-8-8s-8,3.58-8,8c0,0-1.07,9.19,8,12,9.07-2.8,8-12,8-12Z"/>
      <path class="cls-3" d="m29.5,44.1s9.51-3.69,16,0c0,0,.33-2.43-.76-3.38,0,0-6.35-2.59-14.38,0,0,0-1.37,1.24-.87,3.38Z"/>
      <path class="cls-7" d="m31.54,59s-1.1,2.26,5.63,3.72c0,0,7.14-1.18,6.17-4.36l-6.37,3.24-5.43-2.61Z"/>
      <path class="cls-1" d="m37.5,36.09s-12.33-6.99-10.42,4.43c0,0,1.08-1.25,1.58-1.86-.18.23-.29.59,1.03,2.95,0,0,2.29-1.85,3.13-2.39,0,0-.45.55,1.9,2.05,0,0,.51-2.27,2.62-1.82h.13c2.11-.44,2.79,1.82,2.79,1.82,2.36-1.5,2.23-1.99,2.23-1.99.84.54,2.81,2.34,2.81,2.34,1.32-2.36.88-2.81.69-3.04.5.61,1.92,1.96,1.92,1.96,2.06-11.42-10.42-4.43-10.42-4.43Z"/>
      <path class="cls-5" d="m36.97,62.03s6.1-4.19,9.41-4.68"/>
      <path class="cls-5" d="m36.97,62.03s-5.62-3.72-8.51-4.01"/>
    </g>
    <ellipse class="cls-9" cx="33.5" cy="48.1" rx="1" ry="1.75"/>
    <ellipse class="cls-9" cx="41.5" cy="48.1" rx="1" ry="1.75"/>
    <path class="cls-6" d="m39.59,46.14s2.08-1.86,3.82-.72"/>
    <path class="cls-6" d="m35.41,46.65s-.91,0-3.82-.73"/>
    <path class="cls-6" d="m35.41,51.49s2.28-.58,4.18.39"/>
  </g>
</svg>