<?xml version="1.0" encoding="UTF-8"?>
<svg xmlns="http://www.w3.org/2000/svg" xmlns:xlink="http://www.w3.org/1999/xlink" viewBox="0 0 75 110">
  <defs>
    <style>
      .cls-1 {
        fill: #404040;
      }

      .cls-1, .cls-2, .cls-3, .cls-4, .cls-5, .cls-6, .cls-7 {
        stroke: #0d0d0d;
        stroke-linecap: round;
        stroke-linejoin: round;
      }

      .cls-2, .cls-8 {
        fill: #d049f2;
      }

      .cls-3, .cls-9, .cls-7 {
        fill: #fff;
      }

      .cls-4, .cls-5 {
        fill: none;
      }

      .cls-5, .cls-7 {
        stroke-width: .75px;
      }

      .cls-6 {
        fill: url(#linear-gradient);
      }

      .cls-10 {
        fill: #0d0d0d;
      }

      .cls-10, .cls-8, .cls-9 {
        stroke-width: 0px;
      }
    </style>
    <linearGradient id="linear-gradient" x1="27.94" y1="58.15" x2="47.06" y2="58.15" gradientUnits="userSpaceOnUse">
      <stop offset=".4" stop-color="#404040"/>
      <stop offset=".6" stop-color="#d049f2"/>
    </linearGradient>
  </defs>
  <g id="Base">
    <rect class="cls-8" width="75" height="110" rx="5.02" ry="5.02"/>
    <rect class="cls-9" x="5" y="5" width="65" height="100" rx="4.46" ry="4.46"/>
    <path class="cls-8" d="m18,12.99c0-1.01-.75-1.83-1.71-1.97v-.03c-.07,0-.16,0-.25,0-.01,0-.03,0-.04,0-.31,0-.6.08-.86.2-.13.04-.26.09-.4.13.18-.52.28-.99.26-1.33,0-1.1-.9-2-2-2s-2,.9-2,2c-.02.31.07.74.22,1.22-.48-.16-.91-.25-1.22-.23-1.1,0-2,.9-2,2s.9,2,2,2c.58.05,1.56-.31,2.5-.73-.73,1.95-2.01,3.74-2.01,3.74h5.01s-1.32-1.85-2.05-3.84c0-.01.01-.03.02-.04.55.26,1.14.5,1.66.66.26.13.55.2.86.2.01,0,.03,0,.04,0,.09,0,.17.01.24,0v-.03c.97-.14,1.71-.96,1.71-1.97Z"/>
    <path class="cls-8" d="m67,97.01c0,1.01-.75,1.83-1.71,1.97v.03c-.07,0-.16,0-.25,0-.01,0-.03,0-.04,0-.31,0-.6-.08-.86-.2-.13-.04-.26-.09-.4-.13.18.52.28.99.26,1.33,0,1.1-.9,2-2,2s-2-.9-2-2c-.02-.31.07-.74.22-1.22-.48.16-.91.25-1.22.23-1.1,0-2-.9-2-2s.9-2,2-2c.58-.05,1.56.31,2.5.73-.73-1.95-2.01-3.74-2.01-3.74h5.01s-1.32,1.85-2.05,3.84c0,.01.01.03.02.04.55-.26,1.14-.5,1.66-.66.26-.13.55-.2.86-.2.01,0,.03,0,.04,0,.09,0,.17-.01.24,0v.03c.97.14,1.71.96,1.71,1.97Z"/>
  </g>
  <g id="People">
    <g>
      <path class="cls-1" d="m45.38,46.39s.96,2.73-1.07,7.02c0,0-5.61-4.78-13.96,0,0,0-1.48-2.68-.8-7.02h15.83Z"/>
      <path class="cls-3" d="m45.85,42.33s1.62-.32,3.68-1.29c0,0-.01,5.35-4.15,5.35,0,0-1.11-2.52.48-4.06Z"/>
      <path class="cls-2" d="m55.75,77.04c.05-4.41-1.68-9.76-1.68-9.76-.98-6.57-5.71-6.2-5.71-6.2-5.17-2.34-10.86,1.96-10.86,1.96,0,0-5.69-4.31-10.86-1.96,0,0-4.74-.37-5.71,6.2,0,0-1.74,5.35-1.68,9.76h8.14s.04-4.58,1.52-8.47c-.23,1.29-.17,3.77,1.29,8.47h14.6c1.45-4.7,1.52-7.18,1.29-8.47,1.48,3.88,1.52,8.47,1.52,8.47h8.14Z"/>
      <path class="cls-6" d="m27.94,56.55s2.98-.79,9.56,0c0,0,6.24-1.55,9.56,0,0,0-4.63,4.06-9.56,3.89,0,0-7.02-.45-9.56-3.89Z"/>
      <path class="cls-3" d="m41.53,52.15c-2.35-1.39-4.03,1.79-4.03,1.79,0,0-1.68-3.18-4.03-1.79,0,0,1.22,2.87,0,6.89,0,0,1.28,2.64,4.03,2.64s4.03-2.64,4.03-2.64c-1.22-4.03,0-6.89,0-6.89Z"/>
      <path class="cls-3" d="m37.5,33.54c-4.69,0-8.5,3.81-8.5,8.5,0,10.76,8.5,11.99,8.5,11.99,0,0,8.5-1.22,8.5-11.99,0-4.69-3.81-8.5-8.5-8.5Z"/>
      <path class="cls-1" d="m37.5,63.04s5.14-2.79,10.86-1.96c0,0,1.76-2.8-1.3-4.53,0,0-3.59,3.4-9.56,3.89v2.6Z"/>
      <path class="cls-2" d="m37.5,63.04s-5.14-2.79-10.86-1.96c0,0-1.76-2.8,1.3-4.53,0,0,3.59,3.4,9.56,3.89v2.6Z"/>
      <path class="cls-1" d="m37.5,63.04s2.94.54,6.36.65c0,0,1.71,2.97-1.59,13.35h-12.07s-1.84-5.65-1.29-8.47c0,0-.05-3.7-2.27-7.49,0,0,5.26-1.46,10.86,1.96Z"/>
      <path class="cls-1" d="m47.61,77.04s-.82-6.68-1.52-8.47c0,0,.31-5.22,2.27-7.49,0,0,4.46-.75,5.71,6.2,0,0,1.68,4,1.68,9.76h-8.14Z"/>
      <path class="cls-1" d="m46,42.04s3.41-.8-.48-6.99c0,0-4.25-3.18-8.74-1.7,0,0-6.66-.2-9.37,5.68,0,0,.17,5.96-1.27,9.79,0,0,8.56,1.29,10.99-6.1,0,0,.43-1.91,4.13-3.33,0,0,2.85.02,3.05,4.71,0,0,1.83,1.68,1.7-2.05Z"/>
      <line class="cls-4" x1="47.26" y1="44.99" x2="47.39" y2="46.94"/>
    </g>
    <ellipse class="cls-10" cx="40.5" cy="45.54" rx="1" ry="1.5"/>
    <line class="cls-5" x1="40.5" y1="45.54" x2="42.04" y2="46.45"/>
    <path class="cls-7" d="m36.33,50.78c.11-.33-1.02-.93-1.02-.93,0,0,2.2-1.25,4.37,0l-3.35.93Z"/>
    <path class="cls-5" d="m38.64,44.19s3.4-.38,3.71-1.3"/>
  </g>
</svg>